<?xml version="1.0" standalone="no"?><!DOCTYPE svg PUBLIC "-//W3C//DTD SVG 1.1//EN" "http://www.w3.org/Graphics/SVG/1.1/DTD/svg11.dtd"><svg class="icon" width="200px" height="199.80px" viewBox="0 0 1025 1024" version="1.1" xmlns="http://www.w3.org/2000/svg"><path d="M762.88 366.7968v-1.024c0-162.0992-76.3904-269.6192-249.6512-269.6192-173.1584 0-249.6512 107.4176-249.6512 269.6192v1.024C116.5312 378.88 1.2288 518.5536 1.2288 659.3536c0 148.8896 128.9216 269.6192 288.0512 269.6192h120.2176c39.1168 0 65.4336-22.9376 65.4336-67.4816V600.6784l-109.056 85.8112c-18.1248 12.6976-43.8272 9.3184-57.4464-7.68-13.6192-16.896-9.9328-40.96 8.0896-53.6576l176.9472-133.7344c16.6912-11.6736 39.8336-9.8304 54.0672 3.8912l163.5328 130.7648c17.6128 13.312 20.3776 37.4784 6.144 53.9648s-40.1408 19.0464-57.7536 5.7344l-102.4-84.5824v262.3488c0 32.9728 16.0768 65.3312 66.1504 65.3312H737.28c158.9248 0 288.0512-120.7296 288.0512-269.6192-0.1024-140.6976-115.4048-280.3712-262.4512-292.4544z" /></svg>