<?xml version="1.0" standalone="no"?><!DOCTYPE svg PUBLIC "-//W3C//DTD SVG 1.1//EN" "http://www.w3.org/Graphics/SVG/1.1/DTD/svg11.dtd"><svg class="icon" width="200px" height="200.00px" viewBox="0 0 1024 1024" version="1.1" xmlns="http://www.w3.org/2000/svg"><path d="M960 810.688l0 49.792C960 915.456 915.456 960 860.416 960l-49.792 0c-36.736 0-68.48-20.16-85.76-49.792L299.072 910.208C281.856 939.84 250.112 960 213.312 960L163.584 960C108.544 960 64 915.456 64 860.416l0-49.792c0-36.736 20.16-68.48 49.792-85.76L113.792 299.072C84.16 281.856 64 250.112 64 213.312L64 163.584C64 108.544 108.544 64 163.584 64l49.792 0c36.736 0 68.48 20.16 85.76 49.792l425.856 0C742.144 84.16 773.888 64 810.688 64l49.792 0C915.456 64 960 108.544 960 163.584l0 49.792c0 36.736-20.16 68.48-49.792 85.76l0 425.856C939.84 742.144 960 773.888 960 810.688zM810.688 910.208l49.792 0c27.52 0 49.792-22.272 49.792-49.792l0-49.792c0-27.52-22.272-49.792-49.792-49.792l-49.792 0c-27.52 0-49.792 22.272-49.792 49.792l0 49.792C760.896 887.936 783.168 910.208 810.688 910.208zM113.792 860.416c0 27.52 22.272 49.792 49.792 49.792l49.792 0c27.52 0 49.792-22.272 49.792-49.792l0-49.792c0-27.52-22.272-49.792-49.792-49.792L163.584 760.832c-27.52 0-49.792 22.272-49.792 49.792L113.792 860.416zM263.104 163.584c0-27.52-22.272-49.792-49.792-49.792L163.584 113.792c-27.52 0-49.792 22.272-49.792 49.792l0 49.792c0 27.52 22.272 49.792 49.792 49.792l49.792 0c27.52 0 49.792-22.272 49.792-49.792L263.168 163.584zM724.928 263.104 299.072 263.104C290.368 278.08 278.08 290.368 263.104 299.072l0 425.856c14.912 8.704 27.264 21.056 35.968 35.968l425.856 0c8.704-14.912 21.056-27.264 35.968-35.968L760.896 299.072C745.92 290.368 733.632 278.08 724.928 263.104zM910.208 163.584c0-27.52-22.272-49.792-49.792-49.792l-49.792 0c-27.52 0-49.792 22.272-49.792 49.792l0 49.792c0 27.52 22.272 49.792 49.792 49.792l49.792 0c27.52 0 49.792-22.272 49.792-49.792L910.208 163.584z" /></svg>