<?xml version="1.0" standalone="no"?><!DOCTYPE svg PUBLIC "-//W3C//DTD SVG 1.1//EN" "http://www.w3.org/Graphics/SVG/1.1/DTD/svg11.dtd"><svg t="1627722867006" class="icon" viewBox="0 0 1024 1024" version="1.1" xmlns="http://www.w3.org/2000/svg" p-id="2063" xmlns:xlink="http://www.w3.org/1999/xlink" width="200" height="200"><defs><style type="text/css"></style></defs><path d="M21.27 213.351c2.354 3.234 4.24 6.935 7.186 9.647 40.386 37.565 80.896 75.022 121.39 112.46 26.48 24.469 56.679 24.469 82.98 0.127 17.677-16.33 35.408-32.607 52.978-49.063 22.833-21.414 22.923-50.768-0.144-72.237-42.307-39.307-84.92-78.362-127.371-117.526-2.946-2.713-5.677-5.533-9.396-9.198 34.223-13.096 68.608-18.755 104.304-16.546 139.264 8.677 237.748 119.718 219.675 247.754-1.221 8.803 2.444 13.744 8.48 19.277a675913.908 675913.908 0 0 1 482.987 446.32c47.696 44.14 56.84 108.077 23.318 159.349-46.296 70.764-152.414 83.034-215.723 24.594C607.914 816.81 444.04 665.133 280.29 513.4c-6.18-5.73-11.911-7.85-20.983-7.168C120.886 516.132 6.09 419.517 3.593 291.032c-0.503-25.708 3.97-50.877 17.677-77.645v-0.036z m780.127 668.133c0 36.703 32.085 66.542 71.788 66.74 39.307 0.234 72.2-29.858 72.488-66.273 0.323-37.061-32.534-67.458-72.488-67.17-39.739 0.27-71.788 30.019-71.788 66.703zM590.453 375.61c-13.222-11.892-25.349-22.725-37.78-33.917 2.191-2.444 3.718-4.474 5.533-6.18 84.004-77.699 167.792-155.594 252.012-233.023 55.78-51.308 146.342-40.313 184.571 21.863 25.115 40.816 19.941 93.076-15.773 126.617-85.441 80.357-172.032 159.618-258.246 239.31-0.79 0.755-1.868 1.186-2.515 1.563-11.947-11.551-23.785-23.013-38.822-37.528 1.491-0.755 6.342-2.066 9.503-4.959 84.956-78.29 169.733-156.761 254.527-235.232 2.713-2.497 7.06-4.959 7.42-7.869 0.844-5.767 1.275-12.773-1.563-17.498-3.737-6.233-11.75-8.084-19.187-4.15-4.203 2.282-7.904 5.623-11.407 8.84-84.256 77.949-168.493 155.935-252.57 234.01-3.197 2.982-5.245 6.97-7.688 10.222-15.917-14.839-29.319-27.36-45.72-42.649 3.52-2.066 8.048-3.736 11.263-6.682 84.363-77.86 168.619-155.81 252.928-233.76 12.953-11.965 14.785-20.444 6.09-27.99-8.281-7.185-17.156-5.37-29.498 6.001-84.543 78.201-169.086 156.367-253.61 234.568-2.947 2.713-6.073 5.317-9.504 8.39v0.053zM43.6 1006.035c-13.42-12.773-26.858-25.977-40.798-38.624-5.408-4.923-1.743-8.049 0.934-11.84 28.941-40.636 57.883-81.237 86.86-121.891 2.749-3.863 6.18-7.438 8.12-11.606 12.055-26.174 34.044-38.229 64.027-39.846 18.917-1.042 32.966-9.755 46.206-22.438 41.355-39.613 83.914-78.147 126.06-117.06 2.676-2.443 5.461-4.814 7.491-6.574 18.755 17.336 37.098 34.295 56.446 52.116-7.797 6.934-16.402 14.408-24.774 22.115-40.26 37.151-80.537 74.266-120.473 111.705-4.49 4.24-7.868 10.384-9.557 16.169-4.383 15.45-7.186 31.259-11.408 46.744-1.06 3.989-4.096 8.57-7.707 10.797-58.188 35.804-116.592 71.34-174.96 106.856-1.635 0.952-3.341 1.706-6.485 3.323l0.018 0.054z m0 0" p-id="2064"></path></svg>