<?xml version="1.0" standalone="no"?><!DOCTYPE svg PUBLIC "-//W3C//DTD SVG 1.1//EN" "http://www.w3.org/Graphics/SVG/1.1/DTD/svg11.dtd"><svg class="icon" width="200px" height="200.00px" viewBox="0 0 1024 1024" version="1.1" xmlns="http://www.w3.org/2000/svg"><path d="M54.144 80.92672H962.0992v299.41248H54.144V80.92672z m885.62688 366.86336H423.92576v60.66176h545.93536V447.79008h-30.09024zM54.144 440.02816h302.81216v478.96576H54.144V440.02816z m560.01024 404.72064H423.92576v60.66176h235.84256c-18.43712-17.46432-33.96608-37.85728-45.61408-60.66176z m-159.65696-132.48h-30.57152v60.65664h166.93248c-1.4592-11.15648-2.42688-22.31808-2.42688-33.96608 0-8.7296 0.4864-17.95584 1.45408-26.69056H454.49728z m197.50912-132.47488H423.92576v60.66176h186.34752a236.55424 236.55424 0 0 1 41.73312-60.66176z m315.42784 90.26048l-36.39296-61.14304c-1.9456-3.88608-7.28064-5.34528-11.1616-3.88608l-45.12768 17.95072c-9.22624-7.28064-19.90144-13.10208-30.58176-17.46432l-6.78912-47.06816c-0.4864-4.37248-4.37248-7.76704-8.73472-7.28064h-72.30464c-4.37248 0-8.24832 3.39456-8.73472 7.28064l-6.79424 47.06816c-10.68032 4.36736-21.3504 10.18368-30.57152 17.46432l-45.12768-17.46432c-4.37248-1.45408-8.73472 0-11.1616 3.88608l-36.39808 61.13792c-2.42688 3.88608-1.4592 8.73984 1.94048 11.16672l38.33856 29.12256c-0.96768 5.81632-0.96768 11.63264-1.45408 17.46432 0 5.82144 0.4864 11.648 1.45408 17.46944l-38.33856 29.11744c-3.39968 2.90816-4.36736 7.76704-1.94048 11.16672l36.39808 61.14304c1.93536 3.87584 7.27552 5.33504 11.1616 3.87584l45.12768-17.95072a119.12704 119.12704 0 0 0 30.57152 17.46432l6.79424 47.0784c0.4864 4.36224 4.36736 7.76192 8.73472 7.28064h72.30464c4.36736 0 8.24832-3.4048 8.73472-7.28064l6.78912-47.0784c10.68032-4.37248 21.35552-10.1888 30.58176-17.46432l45.12768 17.95072c4.36224 1.4592 8.7296 0 11.1616-3.87584l36.39296-61.14304c2.42688-3.88608 1.45408-8.73984-2.432-11.16672l-38.33344-29.11744a102.144 102.144 0 0 0 1.4592-17.46944c0-5.83168-0.49152-11.648-1.4592-17.46432l38.33344-29.12256a9.71264 9.71264 0 0 0 2.432-11.648z m-175.18592 119.85408c-34.93888 0-63.57504-27.65312-63.57504-62.11072s28.63616-62.11584 63.57504-62.11584c34.93376 0 63.56992 27.65312 63.56992 62.11584 0 34.4576-28.63104 62.11072-63.56992 62.11072z"  /></svg>