<?xml version="1.0" standalone="no"?><!DOCTYPE svg PUBLIC "-//W3C//DTD SVG 1.1//EN" "http://www.w3.org/Graphics/SVG/1.1/DTD/svg11.dtd"><svg class="icon" width="200px" height="200.00px" viewBox="0 0 1024 1024" version="1.1" xmlns="http://www.w3.org/2000/svg"><path d="M113.777778 0h796.444444a113.777778 113.777778 0 0 1 113.777778 113.777778v796.444444a113.777778 113.777778 0 0 1-113.777778 113.777778H113.777778a113.777778 113.777778 0 0 1-113.777778-113.777778V113.777778a113.777778 113.777778 0 0 1 113.777778-113.777778z m316.434963 266.94163c-13.842963-54.385778-65.592889-89.865481-120.737185-82.792297-55.182222 7.073185-96.502519 54.499556-96.44563 110.648889 0.170667 56.016593 41.453037 103.196444 96.483555 110.250667 55.030519 7.054222 106.68563-28.197926 120.69926-82.394074h306.896592c15.227259 0 27.572148 12.458667 27.572148 27.856592v110.08c0 7.395556-2.901333 14.468741-8.078222 19.683556-5.176889 5.233778-12.174222 8.154074-19.493926 8.154074h-82.640592v55.713185h82.640592a82.337185 82.337185 0 0 0 58.500741-24.462222 83.986963 83.986963 0 0 0 24.234667-59.088593v-110.08c0-46.155852-37.034667-83.569778-82.735408-83.569777H430.212741z m-134.428445 502.272h304.355556c7.68 58.17837 58.747259 100.370963 116.736 96.464592 57.988741-3.90637 103.025778-52.584296 102.968889-111.293629-0.018963-53.475556-37.69837-99.422815-89.732741-109.416297-52.053333-9.974519-103.784296 18.773333-123.259259 68.532148H295.784296c-7.319704 0-14.336-2.939259-19.512889-8.154074a27.989333 27.989333 0 0 1-8.078222-19.702518v-113.645037c0-7.395556 2.920296-14.468741 8.078222-19.683556 5.176889-5.233778 12.193185-8.154074 19.512889-8.154074h358.684445v-55.713185H295.784296a82.337185 82.337185 0 0 0-58.519703 24.462222 83.986963 83.986963 0 0 0-24.234667 59.088593v113.645037c0 46.155852 37.05363 83.569778 82.75437 83.569778z m82.754371-474.415408c0 30.757926-24.708741 55.713185-55.182223 55.713185-30.454519 0-55.163259-24.955259-55.163259-55.713185 0-30.776889 24.708741-55.713185 55.182222-55.713185 30.454519 0 55.163259 24.936296 55.16326 55.713185z m386.142814 459.586371c0 30.776889-24.689778 55.713185-55.163259 55.713185-30.454519 0-55.163259-24.936296-55.163259-55.713185 0-30.757926 24.708741-55.694222 55.182222-55.694223 30.454519 0 55.144296 24.936296 55.144296 55.694223z"  /></svg>