<?xml version="1.0" standalone="no"?><!DOCTYPE svg PUBLIC "-//W3C//DTD SVG 1.1//EN" "http://www.w3.org/Graphics/SVG/1.1/DTD/svg11.dtd"><svg class="icon" width="200px" height="200.00px" viewBox="0 0 1024 1024" version="1.1" xmlns="http://www.w3.org/2000/svg"><path d="M913.408 911.36H108.032c-23.04 0-41.472-19.456-41.472-43.52V591.872c0-5.632 1.024-10.752 2.56-15.872L180.224 272.384c5.632-16.896 20.992-28.672 39.424-28.672h208.384v87.04H247.808L168.448 548.352H302.592c23.04 0 41.472 19.456 41.472 43.52v43.52h333.312v-43.52c0-24.064 18.432-43.52 41.472-43.52h133.632L773.12 330.752H593.92V243.2h208.384c17.92 0 33.28 11.776 39.424 28.672L952.32 576c1.536 4.608 2.56 10.24 2.56 15.872v275.968c0 23.552-18.432 43.52-41.472 43.52zM649.728 432.128c0 11.776-4.608 23.04-12.288 30.72l-97.28 101.376c-7.68 7.68-17.92 12.8-29.696 12.8-11.264 0-22.016-5.12-29.696-12.8L384 462.848c-7.68-7.68-12.288-18.944-12.288-30.72 0-24.064 18.432-43.52 41.472-43.52 11.264 0 22.016 5.12 29.696 12.8l26.112 27.136V156.672c0-24.064 18.432-43.52 41.472-43.52s41.472 19.456 41.472 43.52V428.544l26.112-27.136c7.68-7.68 17.92-12.8 29.696-12.8 23.04 0 41.984 19.456 41.984 43.52z"  /></svg>