<?xml version="1.0" standalone="no"?><!DOCTYPE svg PUBLIC "-//W3C//DTD SVG 1.1//EN" "http://www.w3.org/Graphics/SVG/1.1/DTD/svg11.dtd"><svg class="icon" width="200px" height="200.00px" viewBox="0 0 1024 1024" version="1.1" xmlns="http://www.w3.org/2000/svg"><path d="M890.91657142 303.69320634H98.7631746l-1.04025397 545.09307937c0 1.56038095-3.1207619 36.40888889 32.768 36.40888889h327.68c20.28495238 0 32.24787302 8.84215873 32.24787301 28.08685714 0 14.56355556-11.44279365 27.56673016-32.24787301 27.56673016h-332.88126984c-66.05612698 0-85.82095238-50.97244444-85.82095238-92.06247619V272.48558729c0-17.68431746 7.28177778-34.84850794 19.24469841-47.33155555l108.1864127-115.98831746c16.12393651-17.16419048 40.04977778-27.04660317 65.536-27.04660318h526.88863492c25.48622222 0 49.41206349 9.8824127 65.536 27.04660318l108.1864127 115.98831746c12.48304762 13.0031746 19.24469841 29.6472381 19.24469841 47.33155555v169.56139683c0 19.24469841-10.92266667 30.68749206-31.20761905 30.68749206s-30.68749206-11.44279365-30.68749206-30.68749206c0.52012698-63.97561905 0.52012698-110.26692063 0.52012698-138.35377778z m-26.0063492-60.33473016l-85.82095239-92.06247619c-10.92266667-13.0031746-22.36546032-8.84215873-26.0063492-8.84215873H226.71441269c-6.76165079-0.52012698-13.0031746 2.08050794-17.68431746 7.28177778l-84.26057143 93.62285714h740.14069842z m-411.42044445 439.50730159c0-138.35377778 111.82730159-250.70120635 250.18107937-250.70120635s250.70120635 111.82730159 250.70120635 250.18107937c0 50.97244444-15.60380952 100.90463492-44.73092064 142.51479365l67.09638095 66.57625397c17.16419048 18.20444444 16.12393651 46.81142857-2.08050793 63.97561904-17.16419048 16.12393651-44.21079365 16.12393651-61.37498413 0l-67.09638095-66.57625396c-113.90780952 78.5391746-269.94590476 49.93219048-348.48507937-63.97561905-29.12711111-41.61015873-44.21079365-91.54234921-44.21079365-141.99466667z m248.10057143 189.32622222c99.34425397 0 178.92368254-72.81777778 188.28596825-178.40355555 8.84215873-105.58577778-87.90146032-205.97028571-195.04761904-200.76901588s-179.96393651 82.70019048-179.96393651 184.12495239 87.38133333 195.04761905 186.7255873 195.04761904z" /></svg>