<?xml version="1.0" standalone="no"?><!DOCTYPE svg PUBLIC "-//W3C//DTD SVG 1.1//EN" "http://www.w3.org/Graphics/SVG/1.1/DTD/svg11.dtd"><svg class="icon" width="200px" height="200.00px" viewBox="0 0 1024 1024" version="1.1" xmlns="http://www.w3.org/2000/svg"><path d="M390.4 460.8c96 0 172.8-78.933333 172.8-172.8 0-96-78.933333-172.8-172.8-172.8s-172.8 78.933333-172.8 172.8c-2.133333 93.866667 76.8 172.8 172.8 172.8z m-136.533333 27.733333c-66.133333-42.666667-108.8-117.333333-108.8-202.666666C147.2 151.466667 256 42.666667 390.4 42.666667s243.2 108.8 243.2 243.2c0 83.2-42.666667 157.866667-108.8 202.666666 125.866667 51.2 211.2 174.933333 211.2 320v70.4c0 57.6-46.933333 104.533333-104.533333 104.533334H147.2C89.6 981.333333 42.666667 934.4 42.666667 876.8v-70.4c0-142.933333 87.466667-266.666667 211.2-317.866667z m379.733333 422.4c19.2 0 34.133333-14.933333 34.133333-34.133333v-70.4c0-153.6-125.866667-277.333333-277.333333-277.333333s-277.333333 125.866667-277.333333 277.333333v70.4c0 19.2 14.933333 34.133333 34.133333 34.133333h486.4zM704 130.133333c104.533333 2.133333 189.866667 87.466667 189.866667 192 0 61.866667-27.733333 113.066667-70.4 149.333334 93.866667 42.666667 157.866667 138.666667 157.866666 249.6V789.333333c0 57.6-46.933333 104.533333-104.533333 104.533334h-51.2c-19.2 0-34.133333-14.933333-34.133333-34.133334 0-19.2 14.933333-34.133333 34.133333-34.133333h51.2c19.2 0 34.133333-14.933333 34.133333-34.133333v-70.4c0-115.2-91.733333-206.933333-206.933333-209.066667-19.2 0-34.133333-14.933333-34.133333-34.133333 0-19.2 14.933333-34.133333 34.133333-34.133334 66.133333-2.133333 119.466667-55.466667 119.466667-121.6S770.133333 202.666667 704 200.533333c-19.2 0-34.133333-14.933333-34.133333-34.133333-2.133333-21.333333 14.933333-36.266667 34.133333-36.266667z m0 0" /></svg>