<?xml version="1.0" standalone="no"?><!DOCTYPE svg PUBLIC "-//W3C//DTD SVG 1.1//EN" "http://www.w3.org/Graphics/SVG/1.1/DTD/svg11.dtd"><svg class="icon" width="200px" height="200.00px" viewBox="0 0 1024 1024" version="1.1" xmlns="http://www.w3.org/2000/svg"><path d="M894.455 699.174H621.35v171.264h273.105V699.174zM402.261 870.438V699.09H129.758v171.35H402.26z m-62.46-717.051v192.298H684.54V153.387H339.802zM222.768 656.119v-120.7c0-29.226 2.901-32.042 32.597-32.085h233.89v-114.56h-18.218c-50.001 0-100.007 0.09-150.055-0.042-20.309-0.043-25.813-5.248-25.856-24.576-0.128-76.37-0.128-152.747 0-229.12 0.043-18.3 5.846-23.932 24.704-23.975 128.342-0.09 256.679 0.043 385.058-0.128 16.598-0.042 24.192 6.955 24.15 22.998-0.214 76.97-0.043 153.941-0.17 230.912 0 18.218-5.846 23.803-24.748 23.893-55.978 0.128-111.953 0.043-169.169 0.043v114.564h19.286c72.874 0 145.787 0 218.705 0.043 23.722 0 28.245 4.48 28.288 27.52 0.085 40.998 0 82.005 0 125.35h101.59c33.744 0 35.835 1.963 35.835 34.261 0 65.366 0.043 130.774-0.043 196.139-0.042 21.628-4.992 26.368-27.69 26.368-102.439 0.043-204.882 0.085-307.277 0-21.29-0.043-26.496-5.12-26.539-25.728-0.085-68.262-0.043-136.572 0-204.838 0.043-21.334 5.205-26.16 27.947-26.202 50-0.043 99.968 0 151.377 0v-110.08H267.14v109.952h18.646c45.18 0 90.406-0.085 135.59 0.047 20.053 0.085 25.472 5.376 25.515 24.917 0.085 68.864 0.085 137.728 0 206.588-0.043 20.143-5.504 25.216-27.094 25.216-102.442 0.09-204.88 0.09-307.276 0-21.59 0-27.051-5.073-27.094-25.259-0.128-68.864-0.128-137.685 0-206.545 0.043-19.541 5.462-24.832 25.515-24.917 36.65-0.18 73.259-0.056 111.825-0.056z"  /></svg>