<?xml version="1.0" standalone="no"?><!DOCTYPE svg PUBLIC "-//W3C//DTD SVG 1.1//EN" "http://www.w3.org/Graphics/SVG/1.1/DTD/svg11.dtd"><svg class="icon" width="200px" height="200.00px" viewBox="0 0 1024 1024" version="1.1" xmlns="http://www.w3.org/2000/svg"><path d="M749.12 112a16 16 0 0 1 13.44 7.36l95.04 146.72 51.84 80a16 16 0 0 1 2.56 8.64V896a16 16 0 0 1-16 16H128a16 16 0 0 1-16-16V354.88a16 16 0 0 1 2.56-8.64l51.84-80 95.04-146.72a16 16 0 0 1 13.44-7.52h474.24m0-48H274.88a64 64 0 0 0-53.76 29.28L126.08 240l-51.84 80A64 64 0 0 0 64 354.88V896a64 64 0 0 0 64 64h768a64 64 0 0 0 64-64V354.88a64 64 0 0 0-10.24-34.88l-51.84-80-95.04-146.72A64 64 0 0 0 749.12 64z"  /><path d="M64 352h896v48H64zM846.24 609.12a22.88 22.88 0 0 0 0-17.6 26.08 26.08 0 0 0-5.28-7.84l-147.04-147.04a24 24 0 0 0-33.92 33.92L766.08 576H200a24 24 0 0 0 0 48h624a23.36 23.36 0 0 0 8.8-1.76 25.12 25.12 0 0 0 13.44-13.12zM177.76 686.88a22.88 22.88 0 0 0 0 17.6 26.08 26.08 0 0 0 5.28 7.84l147.04 147.04a24 24 0 0 0 33.92-33.92L257.92 720H824a24 24 0 0 0 0-48h-624a23.36 23.36 0 0 0-8.8 1.76 25.12 25.12 0 0 0-13.44 13.12z"  /></svg>