<?xml version="1.0" standalone="no"?><!DOCTYPE svg PUBLIC "-//W3C//DTD SVG 1.1//EN" "http://www.w3.org/Graphics/SVG/1.1/DTD/svg11.dtd"><svg class="icon" width="200px" height="200.00px" viewBox="0 0 1024 1024" version="1.1" xmlns="http://www.w3.org/2000/svg"><path d="M835.66136889 174.08H51.85422222l79.4624-126.41848889a18.20444445 18.20444445 0 0 1 15.41233778-8.51626666h594.05653333a18.20444445 18.20444445 0 0 1 15.41233778 8.51626666L835.66023111 174.08z m13.16864 54.61333333v738.41777778c0 10.05454222-8.14990222 18.20444445-18.20444444 18.20444444H56.88888889c-10.05454222 0-18.20444445-8.14990222-18.20444444-18.20444444V228.69333333h810.14556444zM627.18862222 550.31125333H197.78673778c-10.05340445 0-18.20444445 8.14990222-18.20444445 18.20444445v18.20444444c0 10.05340445 8.15104 18.20444445 18.20444445 18.20444445h427.14225777L489.94190222 739.91168c-7.10997333 7.10997333-7.10997333 18.6368 0 25.74563555l12.87168 12.87168c7.10997333 7.10997333 18.6368 7.10997333 25.74563556 0L711.29201778 595.79733333c10.66325333-10.66439111 10.66325333-27.95406222 0-38.61731555l-176.71964445-176.71964445c-7.10883555-7.10883555-18.63566222-7.10883555-25.74449778 0l-12.87281777 12.87281778c-7.10883555 7.10997333-7.10883555 18.6368 0 25.74563556L627.18862222 550.30897778zM985.31555555 984.85475555h-60.1031111V38.68444445H985.31555555v946.1703111z"  /></svg>