<?xml version="1.0" standalone="no"?><!DOCTYPE svg PUBLIC "-//W3C//DTD SVG 1.1//EN" "http://www.w3.org/Graphics/SVG/1.1/DTD/svg11.dtd"><svg class="icon" width="200px" height="200.00px" viewBox="0 0 1024 1024" version="1.1" xmlns="http://www.w3.org/2000/svg"><path d="M376.46791111 303.53635555h256.37546667a32.64284445 32.64284445 0 0 0 32.64284444-32.64284444 32.64284445 32.64284445 0 0 0-32.64284444-32.64284444H376.46791111a32.64284445 32.64284445 0 0 0-32.64284444 32.64284444 32.64284445 32.64284445 0 0 0 32.64284444 32.64284444zM250.00391111 230.68444445a40.20906667 40.20906667 0 1 0 40.20906667 40.20906666 40.20906667 40.20906667 0 0 0-40.20906667-40.20906666zM376.46791111 464.08817778h256.37546667a32.64284445 32.64284445 0 0 0 32.64284444-32.64284445 32.64284445 32.64284445 0 0 0-32.64284444-32.64284444H376.46791111a32.64284445 32.64284445 0 0 0-32.64284444 32.64284444 32.64284445 32.64284445 0 0 0 32.64284444 32.64284445zM250.00391111 391.23626667a40.20906667 40.20906667 0 1 0 40.20906667 40.20906666 40.20906667 40.20906667 0 0 0-40.20906667-40.20906666zM376.46791111 624.64h201.89866667a32.64284445 32.64284445 0 0 0 0-65.29706667H376.46791111a32.64284445 32.64284445 0 0 0 0 65.29706667zM250.00391111 551.82222222a40.20906667 40.20906667 0 1 0 40.20906667 40.20906667A40.20906667 40.20906667 0 0 0 250.00391111 551.82222222zM472.00711111 719.89475555h-95.57333333a32.64284445 32.64284445 0 0 0-32.64284445 32.64284445 32.64284445 32.64284445 0 0 0 32.64284445 32.64284445h95.57333333a32.64284445 32.64284445 0 0 0 32.64284444-32.64284445 32.64284445 32.64284445 0 0 0-32.64284444-32.64284445zM250.00391111 712.32853333a40.20906667 40.20906667 0 1 0 40.20906667 40.20906667 40.20906667 40.20906667 0 0 0-40.20906667-40.20906667z"  /><path d="M993.64408888 121.04817778a32.64284445 32.64284445 0 0 0-44.5895111 11.95804444L861.01333333 285.58222222V79.06417778a76.84551111 76.84551111 0 0 0-76.84551111-76.84551111H133.75715555a76.84551111 76.84551111 0 0 0-76.84551111 76.84551111V944.35555555a76.84551111 76.84551111 0 0 0 76.84551111 76.84551112h650.4448A76.84551111 76.84551111 0 0 0 861.01333333 944.35555555V416.23324445l144.60017778-250.59555556a32.65422222 32.65422222 0 0 0-11.96942223-44.58951111zM795.7504 925.78702222a30.13973333 30.13973333 0 0 1-30.13973334 30.13973333h-613.26222222a30.13973333 30.13973333 0 0 1-30.13973333-30.13973333V97.64408889a30.13973333 30.13973333 0 0 1 30.13973333-30.13973334h613.26222222a30.13973333 30.13973333 0 0 1 30.13973334 30.13973334v301.11288889L577.13777778 777.70524445a32.64284445 32.64284445 0 1 0 56.54755555 32.63146666L795.7504 529.408z"  /></svg>