<?xml version="1.0" standalone="no"?><!DOCTYPE svg PUBLIC "-//W3C//DTD SVG 1.1//EN" "http://www.w3.org/Graphics/SVG/1.1/DTD/svg11.dtd"><svg class="icon" width="200px" height="200.00px" viewBox="0 0 1024 1024" version="1.1" xmlns="http://www.w3.org/2000/svg"><path d="M664.55324445 742.22554075m-116.50844445 0a116.50844445 116.50844445 0 1 0 233.01688889 0 116.50844445 116.50844445 0 1 0-233.01688889 0Z"  /><path d="M861.52533333 7.13007408H706.18074075v233.01688889h233.01688888V84.80237037c0-42.71976297-34.95253333-77.6722963-77.6722963-77.67229629zM667.34459259 317.81925925c-21.35988148 0-38.83614815-17.47626667-38.83614814-38.83614814V7.13007408H162.47466667c-42.71976297 0-77.6722963 34.95253333-77.6722963 77.67229629v854.39525926c0 42.71976297 34.95253333 77.6722963 77.6722963 77.67229629h699.05066666c6.91768889 0 13.71401482-0.9709037 20.02488889-2.66998517L771.71674075 904.2450963c-30.70482963 20.38897778-67.47780741 32.16118518-107.04213334 32.16118518-107.28485925 0-194.18074075-86.89588148-194.18074074-194.18074073s86.89588148-194.18074075 194.18074074-194.18074075 194.18074075 86.89588148 194.18074074 194.18074075c0 39.56432592-11.89357037 76.3373037-32.16118518 107.04213333l109.95484444 109.95484444c1.69908148-6.43223703 2.66998518-13.1072 2.66998518-20.02488889V317.81925925H667.34459259zM395.24882963 617.10032592c-7.03905185 7.03905185-16.74808889 11.40811852-27.42802963 11.40811853h-116.50844445c-21.35988148 0-38.83614815-17.47626667-38.83614814-38.83614815 0-10.67994075 4.36906667-20.38897778 11.40811851-27.42802963 7.03905185-7.03905185 16.74808889-11.40811852 27.42802963-11.40811852h116.50844445c21.35988148 0 38.83614815 17.47626667 38.83614815 38.83614815 0 10.67994075-4.36906667 20.38897778-11.40811852 27.42802962z m349.52533334-155.34459259c-7.03905185 7.03905185-16.74808889 11.40811852-27.42802964 11.40811852h-466.03377778c-21.35988148 0-38.83614815-17.47626667-38.83614814-38.83614815 0-10.67994075 4.36906667-20.38897778 11.40811851-27.42802962 7.03905185-7.03905185 16.74808889-11.40811852 27.42802963-11.40811853h466.03377778c21.35988148 0 38.83614815 17.47626667 38.83614815 38.83614815 0 10.67994075-4.36906667 20.38897778-11.40811851 27.42802963z"  /></svg>