<?xml version="1.0" standalone="no"?><!DOCTYPE svg PUBLIC "-//W3C//DTD SVG 1.1//EN" "http://www.w3.org/Graphics/SVG/1.1/DTD/svg11.dtd"><svg class="icon" width="200px" height="200.00px" viewBox="0 0 1024 1024" version="1.1" xmlns="http://www.w3.org/2000/svg"><path d="M447.53103406 858.04689688h128.93793188V809.93103406H447.53103406v48.14896594zM254.20689687 594.75862063l128.93793094-0.11586188v-43.49793094H254.20689687V594.75862063z m193.32413719 132.26482781l128.77241438 0.38068968 0.1655175-46.85793093H447.53103406v46.47724125z m-193.32413718 131.08965468h128.93793093V809.93103406H254.20689687v48.14896594z m0.82758562-130.95724125h128.11034531v-46.60965468H254.20689687z m385.82068969-132.41379281h128.93793094v-43.61379281h-128.93793094V594.75862063zM447.53103406 594.75862063l128.93793188-0.13241344v-43.61379375H447.53103406V594.75862063z m193.32413813 132.41379281l127.94482781 0.11586281 0.99310312-46.7255175h-128.93793093V727.17241344z m0 130.95724219h128.93793093V809.93103406h-128.93793093v48.14896594zM830.70344844 992H193.29655156a95.38758656 95.38758656 0 0 1-95.17241344-95.38758656V127.37103406A95.40413813 95.40413813 0 0 1 193.29655156 31.98344844h637.40689688A95.40413813 95.40413813 0 0 1 925.87586187 127.37103406v769.22482782A95.38758656 95.38758656 0 0 1 830.70344844 992zM197.6 64.62344844c-22.51034437 0-66.70344844 40.65103406-66.70344844 63.27724125l0.1655175 768.69517218c0 22.62620719 39.55862062 62.49931031 62.2344825 62.49931032h637.40689688c22.67586187 0 61.90344844-39.87310313 61.90344844-62.49931032l0.49655156-769.22482781c0-22.62620719-39.72413812-62.2344825-62.4-62.2344825z m529.32413812 397.95310312H274.4c-32.27586187 0-58.59310312-19.15034437-58.59310312-51.57517218V192.88275875c0-32.42482781 27.31034437-44.83862063 59.58620624-44.83862063l451.531035-0.51310406c32.44137937 0 64.88275875 12.92689688 64.88275875 45.35172469l0.99310313 218.11862063c0 32.42482781-33.4344825 51.57517219-65.87586187 51.57517218zM250.06896594 179.64137937a5.36275875 5.36275875 0 0 0-3.64137938 5.74344844l0.99310313 238.42758563c0 2.36689688-0.49655156 5.61103406 1.82068969 5.611035l509.29655156-0.13241438c2.31724125 0 1.82068969-2.73103406 1.32413812-18.20689594l0.99310313-225.10344843c0-2.38344844 1.32413813-4.45241344-0.99310313-4.45241344z" /></svg>