<?xml version="1.0" standalone="no"?><!DOCTYPE svg PUBLIC "-//W3C//DTD SVG 1.1//EN" "http://www.w3.org/Graphics/SVG/1.1/DTD/svg11.dtd"><svg class="icon" width="200px" height="200.00px" viewBox="0 0 1024 1024" version="1.1" xmlns="http://www.w3.org/2000/svg"><path d="M919.9 742.5c-0.1-0.1-9.9-11.4-20.1-24.7-15.3-20.1-19.1-28.8-20-31.4 0.9-2.5 4.8-10.5 19.7-28.4 10-12.1 19.8-22.2 19.9-22.3 5.2-5.4 6.1-13.7 2.1-20l-54.2-87c-3.6-5.8-10.5-8.8-17.3-7.4-0.2 0-14.4 3-30.6 5-27.1 3.2-35.1 0.6-36.4 0.1-0.9-0.8-6.3-6.2-15.1-28.2-5.4-13.4-9.1-25.8-9.1-25.9-2-7-8.4-11.7-15.7-11.7H637.5c-7.5 0-14.1 5.1-15.9 12.4-0.1 0.1-3 12.1-7.7 25.3-7.6 21-12.9 26.6-13.9 27.5-1.5 0.5-9.5 2.5-34.9-0.7-15.6-1.9-29.4-4.8-29.6-4.9-6.7-1.4-13.6 1.5-17.2 7.4l-54.2 87c-3.8 6.1-3.2 14 1.5 19.4 0.1 0.1 9.4 10.8 18.6 23.7 14.9 20.8 16.7 28.9 16.9 30.4-0.4 1.4-2.8 8.3-16.9 25.2-8.9 10.5-17.5 19.1-17.7 19.2-5.2 5.2-6.4 13.1-2.9 19.5l51.2 93.1c3.6 6.5 11.2 9.8 18.4 8 0.2-0.1 13.9-3.5 29.5-6 25.1-3.9 33.3-1.8 34.7-1.3 1.1 1 6.9 7.1 15.4 30.7 5.4 14.7 9 28.2 9 28.3 1.9 7.2 8.4 12.2 15.9 12.2h105.4c7.3 0 13.7-4.9 15.8-11.9 0-0.2 3.8-13.2 9.4-27.5 9-23.1 14.8-29.2 16-30.1 1.4-0.4 9.6-2.3 34.1 2.1 15.3 2.8 28.8 6.4 28.9 6.5 6.9 1.9 14.2-0.9 18.1-6.9l56.3-87c3.6-6.2 3-14.2-1.8-19.7z m-84.1 71.9c-5.5-1.3-12.6-2.9-20.2-4.2-17.3-3-38.9-5.6-51.8 1.6-6.7 3.8-16.1 12.1-28.3 43-2.7 6.9-5 13.6-6.8 18.9h-76.6c-1.6-5.4-3.8-12.1-6.4-19.1-6.1-16.6-14.8-36.5-27.6-44.1-6.8-4-18.8-7.9-52.3-2.8-7.5 1.2-14.5 2.5-20 3.7l-37.3-67.9c3.3-3.5 7.3-7.9 11.2-12.7 19.4-23.2 22.2-34.4 22.5-41.5 0.3-7.7-1.8-20.1-21.3-47.3-4.5-6.3-9-12.1-12.5-16.5l39.8-63.9c5.7 1 13 2.2 20.9 3.1 32.9 4 44.4 0.4 50.9-3.1 6.3-3.5 15.9-11.5 26.8-41.3 2.2-6 4.1-11.8 5.5-16.6h76.9c1.6 4.8 3.8 10.9 6.4 17.1 11.8 29 20.5 37 26.7 40.7 6.8 4 18.9 8.1 53 4.2 8.3-1 16.1-2.2 22-3.2l39.5 63.3c-3.9 4.3-8.7 9.8-13.6 15.7-21.6 26.3-24.5 37.4-24.5 44.7s2.9 18.7 24.1 46.9c5.1 6.8 10.2 13 14.1 17.8l-41.1 63.5z m8.1 7.1"  /><path d="M692 595.8c-47.1 0-85.4 38.3-85.4 85.4 0 47.1 38.3 85.4 85.4 85.4 47.1 0 85.4-38.3 85.4-85.4 0-47.2-38.3-85.4-85.4-85.4z m0 130.9c-25.2 0-45.6-20.4-45.6-45.6 0-25.2 20.4-45.6 45.6-45.6 25.2 0 45.6 20.4 45.6 45.6 0 25.2-20.4 45.6-45.6 45.6z m0 0"  /><path d="M704.1 63.6c-17.7 0-32 14.3-32 32V320H604V171.2H421.9V320H162.1V96.2c0-17.7-14.3-32-32-32s-32 14.3-32 32v832c0 17.7 14.3 32 32 32s32-14.3 32-32V659.8h276.1v-64h-45.4V448.2H210.6v147.5h-48.5V384h510.1v54h64V95.6c-0.1-17.7-14.4-32-32.1-32zM701 960.7h4.6c16.4 0 29.7-13.3 29.7-29.7h-64c0 16.4 13.3 29.7 29.7 29.7z"  /></svg>