<?xml version="1.0" standalone="no"?><!DOCTYPE svg PUBLIC "-//W3C//DTD SVG 1.1//EN" "http://www.w3.org/Graphics/SVG/1.1/DTD/svg11.dtd"><svg t="1614323146440" class="icon" viewBox="0 0 1024 1024" version="1.1" xmlns="http://www.w3.org/2000/svg" p-id="3186" xmlns:xlink="http://www.w3.org/1999/xlink" width="200" height="200"><defs><style type="text/css"></style></defs><path d="M824.888889 583.224889V281.258667c0-37.319111-31.288889-67.811556-70.144-67.811556H269.255111c-38.855111 0-70.144 30.492444-70.144 67.811556v319.431111c0 37.319111 31.288889 67.868444 70.144 67.868444H739.555556a85.333333 85.333333 0 0 0 85.333333-85.333333z m-85.333333 142.222222H269.255111c-69.973333 0-127.032889-55.751111-127.032889-124.757333V281.258667c0-69.006222 57.059556-124.700444 127.032889-124.700445h485.489778c69.973333 0 127.032889 55.694222 127.032889 124.700445v301.966222a142.222222 142.222222 0 0 1-142.222222 142.222222z" p-id="3187"></path><path d="M312.888889 441.002667m28.444444 0l0 0q28.444444 0 28.444445 28.444444l0 56.888889q0 28.444444-28.444445 28.444444l0 0q-28.444444 0-28.444444-28.444444l0-56.888889q0-28.444444 28.444444-28.444444Z" p-id="3188"></path><path d="M483.555556 327.224889m28.444444 0l0 0q28.444444 0 28.444444 28.444444l0 170.666667q0 28.444444-28.444444 28.444444l0 0q-28.444444 0-28.444444-28.444444l0-170.666667q0-28.444444 28.444444-28.444444Z" p-id="3189"></path><path d="M654.222222 384.113778m28.444445 0l0 0q28.444444 0 28.444444 28.444444l0 113.777778q0 28.444444-28.444444 28.444444l0 0q-28.444444 0-28.444445-28.444444l0-113.777778q0-28.444444 28.444445-28.444444Z" p-id="3190"></path><path d="M284.444444 810.552889m28.444445 0l398.222222 0q28.444444 0 28.444445 28.444444l0 0q0 28.444444-28.444445 28.444445l-398.222222 0q-28.444444 0-28.444445-28.444445l0 0q0-28.444444 28.444445-28.444444Z" p-id="3191"></path></svg>