<?xml version="1.0" standalone="no"?><!DOCTYPE svg PUBLIC "-//W3C//DTD SVG 1.1//EN" "http://www.w3.org/Graphics/SVG/1.1/DTD/svg11.dtd"><svg class="icon" width="200px" height="200.00px" viewBox="0 0 1024 1024" version="1.1" xmlns="http://www.w3.org/2000/svg"><path d="M507.57785767 475.63560035a10.35630577 10.35630577 0 0 0 10.25792045 0.03106892l420.35729022-237.96720284-421.03044931-241.96991598a10.34594987 10.34594987 0 0 0-10.32005951 0l-417.71125357 240.05917749 418.44655172 239.84687241zM486.10923498 529.02753682a10.35630577 10.35630577 0 0 0-5.20404387-8.9840948L61.50068148 279.66839681v483.82591217c0 3.70755721 1.98323222 7.1303168 5.19368795 8.97891745L486.10923498 1013.5162522v-484.48871538z m-92.93231386 55.9395878c0 7.97435616-8.63198079 12.95573902-15.53445925 8.96856154l-176.60091142-101.96301202a10.35630577 10.35630577 0 0 1-5.17815227-8.96856155v-31.28122239c0-7.97435616 8.63198079-12.95573902 15.53445925-8.96856153l176.60091021 101.963012a10.35630577 10.35630577 0 0 1 5.17815348 8.96856156v31.28122239zM543.14141226 520.85123391a10.35630577 10.35630577 0 0 0-5.25064724 9.00998636v483.65503193l419.40968821-241.04302577a10.35630577 10.35630577 0 0 0 5.19368673-8.97891745v-480.11835377l-419.3527277 237.4752787z"  /></svg>