<?xml version="1.0" standalone="no"?><!DOCTYPE svg PUBLIC "-//W3C//DTD SVG 1.1//EN" "http://www.w3.org/Graphics/SVG/1.1/DTD/svg11.dtd"><svg class="icon" width="200px" height="200.00px" viewBox="0 0 1024 1024" version="1.1" xmlns="http://www.w3.org/2000/svg"><path d="M138.112 136.384h50.112V876.8h-50.112V136.32z m115.52 0h50.112V876.8h-50.112V136.32z m84.928 0h50.112V876.8H338.56V136.32z m211.328 0h50.112V876.8h-50.112V136.32z m282.88 0h50.048V876.8h-50.112V136.32z m-409.216 0H512V876.8H423.552V136.32z m211.328 0h143.808V876.8H634.88V136.32zM911.552 0H672a32.64 32.64 0 0 0 0 65.344h239.616c26.048 0 47.104 21.12 47.104 47.104V352a32.64 32.64 0 0 0 65.344 0V112.448A112.832 112.832 0 0 0 911.552 0zM32.704 384.768a32.64 32.64 0 0 0 32.64-32.64V112.384c0-26.048 21.12-47.104 47.104-47.104H352a32.64 32.64 0 0 0 0-65.344H112.448A112.832 112.832 0 0 0 0 112.448V352c0 18.048 14.656 32.64 32.64 32.64z m319.36 573.888H112.448a47.04 47.04 0 0 1-47.104-47.104V672a32.64 32.64 0 0 0-65.344 0v239.616A112.832 112.832 0 0 0 112.448 1024H352a32.64 32.64 0 0 0 0-65.344z m639.232-319.36a32.64 32.64 0 0 0-32.64 32.64v239.616c0 26.048-21.12 47.104-47.104 47.104H672a32.64 32.64 0 0 0 0 65.344h239.616A112.832 112.832 0 0 0 1024 911.552V672a32.64 32.64 0 0 0-32.64-32.64z" /></svg>