<?xml version="1.0" standalone="no"?><!DOCTYPE svg PUBLIC "-//W3C//DTD SVG 1.1//EN" "http://www.w3.org/Graphics/SVG/1.1/DTD/svg11.dtd"><svg class="icon" width="200px" height="200.00px" viewBox="0 0 1024 1024" version="1.1" xmlns="http://www.w3.org/2000/svg"><path d="M874.65680592 10.89991111H151.77045333c-75.17221925 0-136.12069925 60.9363437-136.12069925 136.12069925v721.96399408c0 75.17221925 60.9363437 136.12069925 136.12069925 136.12069925h722.89848889c75.17221925 0 136.12069925-60.9363437 136.12069926-136.12069925V147.00847407c-0.0121363-75.17221925-60.94848-136.10856297-136.13283556-136.10856296z m71.7983289 858.08469333c0 39.58859852-32.20973037 71.79832889-71.7983289 71.79832889H151.77045333c-39.58859852 0-71.79832889-32.20973037-71.79832888-71.79832889V147.00847407c0-39.58859852 32.20973037-71.79832889 71.79832888-71.79832889h722.89848889c39.58859852 0 71.79832889 32.20973037 71.79832889 71.79832889v721.97613037z"  /><path d="M733.91217778 595.22616888l-110.35534223 110.35534223v-401.71140742c0-54.15215408-43.8969837-98.04913778-98.04913777-98.04913778H269.77166222c-17.76753778 0-32.16118518 14.39364741-32.16118519 32.1611852s14.39364741 32.16118518 32.16118519 32.16118518h255.72389926c18.62921482 0 33.72676741 15.09755259 33.72676741 33.7267674v401.71140742l-110.35534222-110.35534223c-12.56106667-12.56106667-32.92577185-12.56106667-45.48683852 0-12.56106667 12.56106667-12.56106667 32.92577185 0 45.48683853l156.35190518 156.35190517c17.47626667 17.47626667 45.81451852 17.47626667 63.30292149 0L779.3990163 640.71300741c12.56106667-12.56106667 12.56106667-32.92577185 0-45.48683853s-32.92577185-12.56106667-45.48683852 0z"  /></svg>