<?xml version="1.0" standalone="no"?><!DOCTYPE svg PUBLIC "-//W3C//DTD SVG 1.1//EN" "http://www.w3.org/Graphics/SVG/1.1/DTD/svg11.dtd"><svg class="icon" width="200px" height="200.00px" viewBox="0 0 1024 1024" version="1.1" xmlns="http://www.w3.org/2000/svg"><path d="M835.66136889 174.08H51.85422222l79.4624-126.41848889a18.20444445 18.20444445 0 0 1 15.41233778-8.51626666h594.05653333a18.20444445 18.20444445 0 0 1 15.41233778 8.51626666L835.66023111 174.08z m13.16864 54.61333333v738.41777778c0 10.05454222-8.14990222 18.20444445-18.20444444 18.20444444H56.88888889c-10.05454222 0-18.20444445-8.14990222-18.20444444-18.20444444V228.69333333h810.14556444zM271.68426667 550.31125333L402.91669333 419.07768889c7.10883555-7.10997333 7.10883555-18.6368 0-25.74563556l-12.87281778-12.87281778c-7.10883555-7.10883555-18.63566222-7.10883555-25.74449777 0l-176.71964445 176.71964445c-10.66325333 10.66325333-10.66325333 27.95292445 0 38.61617778l182.73393778 182.7328c7.10883555 7.10997333 18.63566222 7.10997333 25.74449778 0l12.87281778-12.87168c7.10883555-7.10997333 7.10883555-18.6368 0-25.74563556L273.94275555 604.92458667h427.14225778c10.05454222 0 18.20444445-8.15104 18.20444445-18.20444445v-18.20444444c0-10.05454222-8.14990222-18.20444445-18.20444445-18.20444445H271.68426667zM985.31555555 984.85475555h-60.1031111V38.68444445H985.31555555v946.1703111z" /></svg>