<?xml version="1.0" standalone="no"?><!DOCTYPE svg PUBLIC "-//W3C//DTD SVG 1.1//EN" "http://www.w3.org/Graphics/SVG/1.1/DTD/svg11.dtd"><svg class="icon" width="200px" height="181.56px" viewBox="0 0 1128 1024" version="1.1" xmlns="http://www.w3.org/2000/svg"><path d="M651.45079716 587.28388662l1e-8 10.24000001c3.413333 27.306667 6.82666699 81.92 37.546667 133.12 17.066667 27.306667 40.96 51.2 71.68000001 68.26666699 27.306667 17.066667 58.026667 27.306667 95.57333299 30.72000001l0 37.546666c0 13.653333 6.826667 27.306667 17.06666699 37.546667 10.24 10.24 23.893333 17.066667 37.546666 17.06666698 20.48 0 30.72-10.24 37.54666701-17.06666698l109.22666699-119.466667c13.653333-13.653333 20.48-30.72 20.48000001-47.786666 0-23.893333-13.653333-37.546667-23.893334-47.786667l-109.22666601-122.88000001c-6.826667-6.826667-17.066667-17.066667-37.54666699-17.06666699-27.306667 0-47.786667 20.47999999-47.786667 47.786667l0 47.78666699c-47.78666701-3.413333-81.92-30.72-112.64000002-78.506667-10.24-17.066667-23.893333-27.306667-40.95999998-27.30666699-27.306667-3.413333-54.613333 17.066667-54.61333301 47.78666699 0-3.413333 0 0 0 0z m119.46666702 85.333333c34.133333 20.48 71.68 27.306667 112.63999999 27.30666701 17.066667 0 27.306667-13.653333 27.30666599-27.30666701l0-51.19999999 95.57333401 105.81333399 6.82666599 6.826666c0 3.413333 0 3.413333-3.41333298 6.826667l-102.40000001 109.22666699-1e-8-47.78666699c0-13.653333-13.653333-27.306667-27.30666699-27.306667-126.293333-6.826667-160.42666699-78.506667-170.666666-153.6 20.48 23.893333 40.96 40.96 61.44000001 51.2z"  /><path d="M1009.473877 430.08c13.653333 10.24 37.546667 3.413333 51.2-13.653333 13.653333-17.066667 10.24-40.96-6.826666-51.2l-491.52-348.16c-3.413333-3.413333-6.826667-6.826667-13.653334-10.24-13.653333-6.826667-34.133333-3.413333-47.786666 13.653333l-488.106667 344.746667c-13.653333 10.24-17.066667 34.133333-6.826667 51.2 13.653333 17.066667 34.133333 23.893333 51.2 13.653333l34.133334-23.893333v570.026666c0 20.48 17.066667 37.546667 37.546666 37.546667 20.48 0 37.546667-17.066667 37.546667-37.546667v-624.64l365.226667-256 477.866666 334.506667z"  /><path d="M382.23289971 413h-74.99999971c-27 0-33.00000029 6.00000029-33.00000029 33.00000029v74.99999971c0 27 6.00000029 33.00000029 33.00000029 33.00000029h74.99999971c27 0 33.00000029-6.00000029 33.00000029-33.00000029v-74.99999971c2.99999971-27-2.99999971-33.00000029-33.00000029-33.00000029zM382.23289971 595.99999971h-74.99999971c-27 0-33.00000029 6.00000029-33.00000029 33.00000029v74.99999971c0 27 6.00000029 33.00000029 33.00000029 33.00000029h74.99999971c27 0 33.00000029-6.00000029 33.00000029-33.00000029v-74.99999971c2.99999971-27-2.99999971-33.00000029-33.00000029-33.00000029zM382.23289971 779.00000029h-74.99999971c-27 0-33.00000029 6.00000029-33.00000029 32.99999942v75.00000058c0 27 6.00000029 33.00000029 33.00000029 32.99999942h74.99999971c27 0 33.00000029-6.00000029 33.00000029-32.99999942V811.99999971c2.99999971-27-2.99999971-33.00000029-33.00000029-32.99999942zM577.2329 779.00000029h-74.99999971c-27 0-33.00000029 6.00000029-33.00000029 32.99999942v75.00000058c0 27 6.00000029 33.00000029 33.00000029 32.99999942h74.99999971c27 0 33.00000029-6.00000029 33.00000029-32.99999942V811.99999971c0-27-6.00000029-33.00000029-33.00000029-32.99999942zM577.2329 595.99999971h-74.99999971c-27 0-33.00000029 6.00000029-33.00000029 33.00000029v74.99999971c0 27 6.00000029 33.00000029 33.00000029 33.00000029h74.99999971c27 0 33.00000029-6.00000029 33.00000029-33.00000029v-74.99999971c0-27-6.00000029-33.00000029-33.00000029-33.00000029z"  /></svg>