<?xml version="1.0" standalone="no"?><!DOCTYPE svg PUBLIC "-//W3C//DTD SVG 1.1//EN" "http://www.w3.org/Graphics/SVG/1.1/DTD/svg11.dtd"><svg class="icon" width="200px" height="200.00px" viewBox="0 0 1024 1024" version="1.1" xmlns="http://www.w3.org/2000/svg"><path d="M839.6 286.8L520.2 131.4c-2.6-1.4-5.3-2.2-8.1-2.5h-0.1c-0.3 0-0.6-0.1-0.9-0.1H509c-3.2 0.1-6.4 1-9.2 2.5L171.1 286.7c-8.2 3.9-13.2 12.5-12.5 21.6l14.3 179.9v0.5c4.5 44 16.4 89.2 35.6 134.2 18.7 43.8 43.3 85.3 73.2 123.4 63.1 80.6 143.2 137.1 225.5 159h0.2c0.3 0.1 0.5 0.1 0.8 0.2 0.3 0.1 0.5 0.1 0.8 0.2 0.3 0.1 0.5 0.1 0.7 0.1 0.3 0 0.6 0.1 0.9 0.1 0.2 0 0.5 0.1 0.6 0.1 0.5 0 1 0.1 1.5 0.1h0.2c0.5 0 1 0 1.5-0.1 0.2 0 0.5 0 0.6-0.1 0.3 0 0.6-0.1 0.9-0.1 0.3 0 0.5-0.1 0.8-0.1 0.3-0.1 0.5-0.1 0.8-0.2 0.3-0.1 0.5-0.1 0.8-0.2 0.1 0 0.2 0 0.3-0.1 41.8-11.7 82.3-32.3 120.4-61.1 35.6-27 68.3-60.4 97-99.4 27.8-37.7 50.7-79.1 68.1-123 17.6-44.3 28.8-89 33.2-132.9v-0.5l14.3-179.9c1-9.1-3.9-17.6-12-21.6z m-45.8 197.7c-15.1 149.1-124.1 329.1-281.1 376.7-147-42.7-279.1-210.1-296-376.7l-13.1-164.6L509.8 175l297.3 144.8-13.3 164.7z"  /><path d="M683.1 506c0-98.8-80.4-179.2-179.2-179.2S324.7 407.2 324.7 506s80.4 179.2 179.2 179.2c32.6 0 64.6-8.9 92.5-25.7 3.3-2 6.5-4 9.6-6.2l39 42.7c4.3 4.8 10.2 7.1 16.2 7.1 5.3 0 10.6-1.9 14.8-5.8 9-8.1 9.6-22 1.4-31L638.7 624c7.8-8.9 14.6-18.4 20.6-28.6 15.6-27.1 23.8-58 23.8-89.4zM609 591.4l-32.7-35.7c-8.1-9-22-9.6-31-1.4s-9.6 22-1.4 31l32.2 35.3-2.4 1.5c-21 12.7-45.1 19.4-69.8 19.4-74.7 0-135.3-60.7-135.3-135.3s60.7-135.3 135.3-135.3 135.3 60.7 135.3 135.3c0.1 31.7-10.8 61.6-30.2 85.2z"  /></svg>