<?xml version="1.0" standalone="no"?><!DOCTYPE svg PUBLIC "-//W3C//DTD SVG 1.1//EN" "http://www.w3.org/Graphics/SVG/1.1/DTD/svg11.dtd"><svg class="icon" width="200px" height="200.00px" viewBox="0 0 1024 1024" version="1.1" xmlns="http://www.w3.org/2000/svg"><path d="M982.016 875.1104H110.3872V77.824l-66.9696-0.4096-0.8192 867.5328h939.6224v-69.8368z m0 0"  /><path d="M226.304 573.6448h67.3792v314.5728h-67.3792zM420.864 482.304h67.3792v405.9136h-67.3792zM615.6288 532.0704h67.3792v356.1472h-67.3792zM810.3936 366.592h67.3792v521.6256h-67.3792zM812.4416 162.4064L616.448 325.8368l-193.7408-95.0272-216.4736 237.568L245.76 505.856l183.5008-199.8848 204.1856 95.0272L851.968 212.992l31.3344 28.8768 29.9008-122.6752-132.096 14.336 31.3344 28.8768z m0 0"  /></svg>