<?xml version="1.0" standalone="no"?><!DOCTYPE svg PUBLIC "-//W3C//DTD SVG 1.1//EN" "http://www.w3.org/Graphics/SVG/1.1/DTD/svg11.dtd"><svg class="icon" width="200px" height="200.00px" viewBox="0 0 1024 1024" version="1.1" xmlns="http://www.w3.org/2000/svg"><path d="M320 585.6c35.2 22.4 124.8 70.4 128 73.6h3.2c3.2 0 9.6-3.2 12.8-6.4 6.4-9.6 3.2-22.4-6.4-51.2l-6.4-12.8H576c3.2 0 60.8 9.6 60.8 57.6 0 35.2-32 57.6-60.8 57.6h-214.4V790.4h220.8c6.4 0 67.2 0 108.8-41.6 25.6-22.4 38.4-57.6 38.4-102.4 0-3.2 0-60.8-38.4-105.6-25.6-28.8-64-38.4-105.6-38.4h-121.6c3.2-6.4 3.2-16 6.4-22.4 6.4-19.2 6.4-35.2 0-41.6s-12.8-6.4-28.8 0c-9.6 6.4-22.4 12.8-35.2 19.2-22.4 12.8-44.8 28.8-67.2 41.6-28.8 19.2-38.4 35.2-38.4 51.2-3.2 12.8 6.4 25.6 19.2 35.2zM825.6 124.8h-115.2V70.4C710.4 28.8 672 0 640 0h-252.8c-32 0-67.2 22.4-67.2 70.4v54.4H198.4C160 124.8 128 156.8 128 198.4v755.2C128 992 160 1024 198.4 1024h627.2c38.4 0 70.4-32 70.4-70.4V198.4c0-41.6-32-73.6-70.4-73.6z m-428.8 64V83.2h233.6V192h-233.6v-3.2z m-9.6 140.8H640c44.8 0 70.4-38.4 70.4-70.4V204.8h108.8v736h-608v-736H320v54.4c-3.2 38.4 22.4 70.4 67.2 70.4z" /></svg>