<?xml version="1.0" standalone="no"?><!DOCTYPE svg PUBLIC "-//W3C//DTD SVG 1.1//EN" "http://www.w3.org/Graphics/SVG/1.1/DTD/svg11.dtd"><svg class="icon" width="200px" height="200.00px" viewBox="0 0 1024 1024" version="1.1" xmlns="http://www.w3.org/2000/svg"><path d="M63.9 65.7v893.8h893.8V65.7H63.9z m812.6 812.6H754.6V756.4H592.1v121.9h-40.6V715.8H388.9v162.5h-40.6V715.8H185.8v162.5h-40.6V675.2h731.3v203.1z m0-284.4h-40.6V472h-122v121.9h-40.6v-81.3H510.8v81.3h-40.6V472H307.6v121.9H145.1V431.4h731.3v162.5z m0-243.8h-40.6V187.6H673.3v162.5h-40.6V187.6H429.5v162.5h-40.6V228.2H185.8v121.9h-40.6V147h731.3v203.1z m0 0"  /></svg>