<?xml version="1.0" standalone="no"?><!DOCTYPE svg PUBLIC "-//W3C//DTD SVG 1.1//EN" "http://www.w3.org/Graphics/SVG/1.1/DTD/svg11.dtd"><svg class="icon" width="200px" height="200.00px" viewBox="0 0 1024 1024" version="1.1" xmlns="http://www.w3.org/2000/svg"><path d="M614.4 238.72v51.2c0 4.693333 3.84 8.533333 8.533333 8.533333h102.4V401.066667c0 4.693333 3.84 8.533333 8.533334 8.533333h51.2c4.693333 0 8.533333-3.84 8.533333-8.533333v-153.813334c0-9.386667-7.68-17.066667-17.066667-17.066666h-153.6c-4.693333 0-8.533333 3.84-8.533333 8.533333zM238.933333 409.6h51.2c4.693333 0 8.533333-3.84 8.533334-8.533333v-102.613334h102.4c4.693333 0 8.533333-3.84 8.533333-8.533333v-51.2c0-4.693333-3.84-8.533333-8.533333-8.533333h-153.6c-9.386667 0-17.066667 7.68-17.066667 17.066666V401.066667c0 4.693333 3.84 8.533333 8.533333 8.533333z m0 0h51.2c4.693333 0 8.533333-3.84 8.533334-8.533333v-102.613334h102.4c4.693333 0 8.533333-3.84 8.533333-8.533333v-51.2c0-4.693333-3.84-8.533333-8.533333-8.533333h-153.6c-9.386667 0-17.066667 7.68-17.066667 17.066666V401.066667c0 4.693333 3.84 8.533333 8.533333 8.533333z m486.4 213.333333v102.186667h-102.4c-4.693333 0-8.533333 3.84-8.533333 8.533333v51.2c0 4.693333 3.84 8.533333 8.533333 8.533334h153.6c9.386667 0 17.066667-7.68 17.066667-17.066667V622.933333c0-4.693333-3.84-8.533333-8.533333-8.533333h-51.2c-4.693333 0-8.533333 3.84-8.533334 8.533333z m-435.2-8.533333h-51.2c-4.693333 0-8.533333 3.84-8.533333 8.533333v153.386667c0 9.386667 7.68 17.066667 17.066667 17.066667h153.6c4.693333 0 8.533333-3.84 8.533333-8.533334v-51.2c0-4.693333-3.84-8.533333-8.533333-8.533333h-102.4V622.933333c0-4.693333-3.84-8.533333-8.533334-8.533333zM588.8 597.333333h-153.6c-4.693333 0-8.533333-3.84-8.533333-8.533333v-153.6c0-4.693333 3.84-8.533333 8.533333-8.533333h153.6c4.693333 0 8.533333 3.84 8.533333 8.533333v153.6c0 4.693333-3.84 8.533333-8.533333 8.533333zM476.586667 732.586667v120.32c0 0.426667 0 0.853333 0.213333 1.28h-30.293333c-7.466667 0-11.306667 8.96-6.186667 14.506666l65.493333 68.693334c3.413333 3.626667 8.96 3.626667 12.373334 0l65.493333-68.693334c5.12-5.333333 1.28-14.506667-6.186667-14.506666h-32.426666c0-0.426667 0.213333-0.853333 0.213333-1.28v-120.32c0-4.693333-3.84-8.533333-8.533333-8.533334h-51.2c-5.12 0-8.96 3.84-8.96 8.533334zM546.986667 289.28V173.226667c0-0.426667 0-0.853333-0.213334-1.28h30.293334c7.466667 0 11.306667-8.96 6.186666-14.506667l-65.493333-68.693333c-3.413333-3.626667-8.96-3.626667-12.373333 0l-65.493334 68.693333c-5.12 5.333333-1.28 14.506667 6.186667 14.506667h32.426667c0 0.426667-0.213333 0.853333-0.213334 1.28v116.053333c0 4.693333 3.84 8.533333 8.533334 8.533333h51.2c5.12 0 8.96-3.84 8.96-8.533333zM733.44 548.266667h118.186667c0.426667 0 0.853333 0 1.28-0.213334v30.293334c0 7.466667 8.96 11.306667 14.506666 6.186666l68.693334-65.493333c3.626667-3.413333 3.626667-8.96 0-12.373333l-68.693334-65.493334c-5.333333-5.12-14.506667-1.28-14.506666 6.186667v32.426667c-0.426667 0-0.853333-0.213333-1.28-0.213334h-118.186667c-4.693333 0-8.533333 3.84-8.533333 8.533334v51.2c0 5.12 3.84 8.96 8.533333 8.96zM290.133333 477.866667H171.946667c-0.426667 0-0.853333 0-1.28 0.213333v-30.293333c0-7.466667-8.96-11.306667-14.506667-6.186667L87.466667 506.88c-3.626667 3.413333-3.626667 8.96 0 12.373333l68.693333 65.493334c5.333333 5.12 14.506667 1.28 14.506667-6.186667V546.133333c0.426667 0 0.853333 0.213333 1.28 0.213334H290.133333c4.693333 0 8.533333-3.84 8.533334-8.533334v-51.2c0-4.906667-3.84-8.746667-8.533334-8.746666z"  /></svg>