<?xml version="1.0" standalone="no"?><!DOCTYPE svg PUBLIC "-//W3C//DTD SVG 1.1//EN" "http://www.w3.org/Graphics/SVG/1.1/DTD/svg11.dtd"><svg class="icon" width="200px" height="200.00px" viewBox="0 0 1024 1024" version="1.1" xmlns="http://www.w3.org/2000/svg"><path d="M877.068433 662.322296v-167.275938H524.432671v-131.108168h128.847682V85.898455H372.980132v278.039735h128.847683v131.108168H149.192053v167.275938H51.99117v214.746137h214.746137v-214.746137H171.796909v-144.671082h330.030906v144.671082h-97.200883v214.746137h214.746136v-214.746137h-97.200883v-144.671082h330.030906v144.671082h-97.200883v214.746137H972.00883v-214.746137h-94.940397zM395.584989 108.503311h232.830022v232.830022H395.584989V108.503311z m-151.452539 745.960265H74.596026v-169.536424h169.536424v169.536424z m352.635762 0h-169.536424v-169.536424h169.536424v169.536424z m352.635762 0h-169.536424v-169.536424H949.403974v169.536424z"  /></svg>