<?xml version="1.0" standalone="no"?><!DOCTYPE svg PUBLIC "-//W3C//DTD SVG 1.1//EN" "http://www.w3.org/Graphics/SVG/1.1/DTD/svg11.dtd"><svg class="icon" width="200px" height="200.00px" viewBox="0 0 1024 1024" version="1.1" xmlns="http://www.w3.org/2000/svg"><path d="M910.222222 960c0 35.271111-27.477333 64-61.269333 64H175.047111C141.255111 1024 113.777778 995.271111 113.777778 960V64C113.777778 28.728889 141.255111 0 175.047111 0h367.616c14.051556 0 30.094222 4.437333 44.828445 11.150222l6.257777-2.901333 153.144889 143.985778 130.446222 122.595555 22.755556 21.390222-2.730667 7.338667c7.793778 15.416889 12.856889 32.768 12.856889 48.412445v608.028444zM625.777778 113.777778v170.666666h170.666666L625.777778 113.777778z m227.555555 227.555555H568.888889V56.888889H170.666667v910.222222h682.666666V341.333333zM341.333333 455.111111h341.333334v170.666667h56.888889v170.666666H568.888889v-170.666666h56.888889V512H398.222222v113.777778h56.888889v170.666666H284.444444v-170.666666h56.888889V455.111111z m284.444445 284.444445h56.888889v-56.888889H625.777778v56.888889z m-284.444445-56.888889v56.888889h56.888889v-56.888889H341.333333z" /></svg>