<?xml version="1.0" standalone="no"?><!DOCTYPE svg PUBLIC "-//W3C//DTD SVG 1.1//EN" "http://www.w3.org/Graphics/SVG/1.1/DTD/svg11.dtd"><svg class="icon" width="200px" height="200.00px" viewBox="0 0 1024 1024" version="1.1" xmlns="http://www.w3.org/2000/svg"><path d="M631.68 42.666667c51.456 0 94.976 32.298667 109.397333 76.8h79.402667c64.597333 0 117.12 49.28 118.186667 110.506666v638.933334c0 61.482667-51.882667 111.402667-116.224 112.426666H203.52C138.922667 981.333333 86.4 932.010667 85.333333 870.826667V231.808c0-61.44 51.882667-111.36 116.224-112.384H282.88C297.386667 74.922667 340.906667 42.666667 392.32 42.666667h239.36z m124.842667 170.666666c-13.696 41.386667-47.189333 85.632-96.128 85.632H357.205333C308.266667 298.965333 284.117333 254.762667 270.421333 213.333333H218.709333C192.469333 213.333333 171.136 232.96 170.666667 257.28v594.005333c0 24.448 21.034667 44.288 47.189333 44.714667h378.24v-2.304h64.298667V896h144.896c26.24 0 47.573333-19.626667 48.042666-43.946667v-0.768V352 258.048c0-24.448-21.034667-44.288-47.189333-44.714667H756.48z m-277.162667 426.666667c18.005333 0 32.64 19.114667 32.64 42.666667s-14.634667 42.666667-32.64 42.666666h-148.053333C313.301333 725.333333 298.666667 706.218667 298.666667 682.666667s14.634667-42.666667 32.64-42.666667h148.053333z m213.333333-170.666667c18.005333 0 32.64 19.114667 32.64 42.666667s-14.634667 42.666667-32.64 42.666667h-361.386666C313.301333 554.666667 298.666667 535.552 298.666667 512s14.634667-42.666667 32.64-42.666667h361.386666z m-58.026666-341.333333h-245.333334C362.837333 128 341.333333 147.114667 341.333333 170.666667s21.504 42.666667 48 42.666666h245.333334C661.162667 213.333333 682.666667 194.218667 682.666667 170.666667s-21.504-42.666667-48-42.666667z" /></svg>