<?xml version="1.0" standalone="no"?><!DOCTYPE svg PUBLIC "-//W3C//DTD SVG 1.1//EN" "http://www.w3.org/Graphics/SVG/1.1/DTD/svg11.dtd"><svg class="icon" width="200px" height="200.00px" viewBox="0 0 1024 1024" version="1.1" xmlns="http://www.w3.org/2000/svg"><path d="M961.64977778 1019.79022222c-21.16266667 0-38.22933333-17.06666667-38.22933333-38.22933333V367.95733333L509.72444445 81.00977778l-411.53422223 286.72v613.83111111c0 21.16266667-17.06666667 38.22933333-38.22933333 38.22933333s-38.22933333-17.06666667-38.22933334-38.22933333v-633.74222222c0-12.51555555 6.03022222-24.34844445 16.384-31.51644445L474.22577778 12.62933333C495.38844445-2.27555555 524.06044445-2.27555555 545.22311111 12.51555555l438.272 303.78666667c10.24 7.168 16.49777778 19.00088889 16.49777778 31.51644445v633.74222222c-0.11377778 21.16266667-17.18044445 38.22933333-38.34311111 38.22933333z m0 0"  /><path d="M268.97066667 439.40977778c-16.15644445 0-29.12711111 12.97066667-29.12711112 29.12711111s12.97066667 29.12711111 29.12711112 29.12711111S298.09777778 484.69333333 298.09777778 468.53688889c0-16.04266667-13.08444445-29.12711111-29.12711111-29.12711111z m484.57955555 0H368.75377778c-16.15644445 0-29.12711111 12.97066667-29.12711111 29.12711111s12.97066667 29.12711111 29.12711111 29.12711111h384.79644444c16.15644445 0 29.12711111-12.97066667 29.12711111-29.12711111 0-16.04266667-12.97066667-29.12711111-29.12711111-29.12711111zM268.97066667 604.61511111c-16.15644445 0-29.12711111 12.97066667-29.12711112 29.12711111 0 16.15644445 12.97066667 29.12711111 29.12711112 29.12711111S298.09777778 649.89866667 298.09777778 633.74222222c0-16.04266667-13.08444445-29.12711111-29.12711111-29.12711111z m484.57955555 0H368.75377778c-16.15644445 0-29.12711111 12.97066667-29.12711111 29.12711111 0 16.15644445 12.97066667 29.12711111 29.12711111 29.12711111h384.79644444c16.15644445 0 29.12711111-12.97066667 29.12711111-29.12711111 0-16.04266667-12.97066667-29.12711111-29.12711111-29.12711111zM268.97066667 769.82044445c-16.15644445 0-29.12711111 12.97066667-29.12711112 29.1271111 0 16.15644445 12.97066667 29.12711111 29.12711112 29.12711112s29.12711111-12.97066667 29.12711111-29.12711112c0-16.15644445-13.08444445-29.12711111-29.12711111-29.1271111z m484.57955555 0H368.75377778c-16.15644445 0-29.12711111 12.97066667-29.12711111 29.1271111 0 16.15644445 12.97066667 29.12711111 29.12711111 29.12711112h384.79644444c16.15644445 0 29.12711111-12.97066667 29.12711111-29.12711112 0-16.15644445-12.97066667-29.12711111-29.12711111-29.1271111z m0 0"  /></svg>