<?xml version="1.0" standalone="no"?><!DOCTYPE svg PUBLIC "-//W3C//DTD SVG 1.1//EN" "http://www.w3.org/Graphics/SVG/1.1/DTD/svg11.dtd"><svg class="icon" width="200px" height="200.00px" viewBox="0 0 1024 1024" version="1.1" xmlns="http://www.w3.org/2000/svg"><path d="M947.62666667 948.8l-109.76-95.89333333c21.54666667-28.69333333 33.28-63.36 33.28-99.84 0-44.48-17.28-86.18666667-48.74666667-117.65333334-31.46666667-31.46666667-73.28-48.74666667-117.65333333-48.74666666s-86.29333333 17.28-117.76 48.64c-31.46666667 31.46666667-48.74666667 73.28-48.74666667 117.65333333s17.28 86.18666667 48.74666667 117.65333333c31.46666667 31.46666667 73.28 48.74666667 117.65333333 48.74666667 36.37333333 0 70.93333333-11.62666667 99.62666667-33.06666667l112.21333333 98.02666667c9.81333333 8.53333333 24.74666667 7.57333333 33.38666667-2.24 8.64-9.81333333 7.68-24.64-2.24-33.28zM585.6 753.06666667c0-65.70666667 53.44-119.14666667 119.14666667-119.14666667S823.78666667 687.46666667 823.78666667 753.06666667s-53.44 119.14666667-119.14666667 119.14666666S585.6 818.77333333 585.6 753.06666667z"  /><path d="M903.46666667 238.93333333H122.66666667c-28.8 0-52.26666667 17.28-52.26666667 38.61333334v673.28c0 21.33333333 23.46666667 38.61333333 52.26666667 38.61333333h491.94666666c18.88 0 34.13333333-15.25333333 34.13333334-34.13333333s-15.25333333-34.13333333-34.13333334-34.13333334H140.8V307.2h744.53333333v380.69333333c0 14.82666667 15.68 26.88 35.2 26.88 19.41333333 0 35.2-12.05333333 35.2-26.88V277.44c0-21.22666667-23.46666667-38.50666667-52.26666666-38.50666667z"  /><path d="M778.77333333 443.73333333H247.36c-18.88 0-34.13333333-15.25333333-34.13333333-34.13333333s15.25333333-34.13333333 34.13333333-34.13333333h531.41333333c18.88 0 34.13333333 15.25333333 34.13333334 34.13333333-0.10666667 18.88-15.36 34.13333333-34.13333334 34.13333333zM940.58666667 246.50666667l-136.96-200.53333334c-4.48-6.61333333-11.52-10.34666667-18.77333334-11.09333333-2.45333333-0.53333333-5.12-0.85333333-7.78666666-0.85333333H245.54666667c-16.21333333 0-29.65333333 11.30666667-33.17333334 26.34666666L83.84 248.64c-8 11.73333333-5.01333333 27.62666667 6.72 35.62666667l13.97333333 9.49333333c11.73333333 8 27.62666667 5.01333333 35.62666667-6.72l126.29333333-184.96H759.46666667l124.8 182.82666667c8 11.73333333 24 14.72 35.62666666 6.72l13.97333334-9.49333334c11.62666667-8 14.61333333-23.89333333 6.72-35.62666666z"  /></svg>