<?xml version="1.0" standalone="no"?><!DOCTYPE svg PUBLIC "-//W3C//DTD SVG 1.1//EN" "http://www.w3.org/Graphics/SVG/1.1/DTD/svg11.dtd"><svg class="icon" width="200px" height="200.00px" viewBox="0 0 1024 1024" version="1.1" xmlns="http://www.w3.org/2000/svg"><path d="M254.634667 970.888533V748.885333h74.9568v163.6352a33.9968 33.9968 0 0 0 33.9968 33.9968h406.869333a33.9968 33.9968 0 0 0 33.9968-33.9968V175.581867a33.9968 33.9968 0 0 0-33.9968-33.9968h-406.869333a33.9968 33.9968 0 0 0-33.9968 33.9968v105.130666H254.634667V117.077333c0-28.125867 22.801067-50.926933 50.9952-50.926933h522.786133a50.9952 50.9952 0 0 1 50.9952 50.926933v853.8112a50.9952 50.9952 0 0 1-50.9952 50.9952H305.629867a50.9952 50.9952 0 0 1-50.9952-50.9952z m49.3568-631.671466c48.469333 0 87.790933 39.253333 87.790933 87.790933v68.266667h41.506133c9.4208 0 17.066667 7.5776 17.066667 16.930133v161.109333a16.9984 16.9984 0 0 1-17.066667 16.9984H155.2384a16.9984 16.9984 0 0 1-17.066667-16.9984v-161.109333c0-9.352533 7.645867-16.930133 17.066667-16.930133h41.506133v-68.266667c0-48.469333 39.253333-87.790933 87.790934-87.790933h19.456z m-68.266667 97.4848v58.5728h117.077333v-58.5728a58.504533 58.504533 0 1 0-117.077333 0z"  /><path d="M682.666667 579.9936a34.133333 34.133333 0 1 1 0 68.266667H532.8896a34.133333 34.133333 0 1 1 0-68.266667H682.666667z m0-152.9856a34.133333 34.133333 0 1 1 0 68.266667H532.8896a34.133333 34.133333 0 1 1 0-68.266667H682.666667zM682.666667 273.066667a34.133333 34.133333 0 1 1 0 68.266666h-204.8a34.133333 34.133333 0 0 1 0-68.266666h204.8z"  /></svg>