<?xml version="1.0" standalone="no"?><!DOCTYPE svg PUBLIC "-//W3C//DTD SVG 1.1//EN" "http://www.w3.org/Graphics/SVG/1.1/DTD/svg11.dtd"><svg t="1610524091773" class="icon" viewBox="0 0 1024 1024" version="1.1" xmlns="http://www.w3.org/2000/svg" p-id="4812" xmlns:xlink="http://www.w3.org/1999/xlink" width="200" height="200"><defs><style type="text/css"></style></defs><path d="M608 352h224v64H608zM608 480h224v64H608zM608 608h224v64H608z" p-id="4813"></path><path d="M896 192H128a64.19 64.19 0 0 0-64 64v512a64.19 64.19 0 0 0 64 64h768a64.19 64.19 0 0 0 64-64V256a64.19 64.19 0 0 0-64-64zM480 510.84a12.57 12.57 0 0 1-10.11 12.33l-38.34 7.67a12.62 12.62 0 0 0-9.37 8.1q-1.9 5.24-4.25 10.26a12.63 12.63 0 0 0 0.89 12.37l21.69 32.53a12.57 12.57 0 0 1-1.57 15.9l-21 21a12.57 12.57 0 0 1-15.86 1.57l-32.53-21.69a12.63 12.63 0 0 0-12.37-0.89q-5 2.35-10.26 4.25a12.62 12.62 0 0 0-8.1 9.37l-7.67 38.34A12.57 12.57 0 0 1 318.84 672h-29.68a12.57 12.57 0 0 1-12.33-10.11l-7.67-38.34a12.62 12.62 0 0 0-8.1-9.37q-5.24-1.91-10.26-4.25a12.63 12.63 0 0 0-12.37 0.89l-32.53 21.69a12.57 12.57 0 0 1-15.9-1.57l-21-21a12.57 12.57 0 0 1-1.57-15.86l21.69-32.53a12.63 12.63 0 0 0 0.89-12.37q-2.34-5-4.25-10.26a12.62 12.62 0 0 0-9.37-8.1l-38.34-7.67A12.57 12.57 0 0 1 128 510.84v-29.68a12.57 12.57 0 0 1 10.11-12.33l38.34-7.67a12.62 12.62 0 0 0 9.37-8.1q1.9-5.24 4.25-10.26a12.63 12.63 0 0 0-0.89-12.37l-21.69-32.53a12.57 12.57 0 0 1 1.57-15.9l21-21a12.57 12.57 0 0 1 15.86-1.57l32.53 21.69a12.63 12.63 0 0 0 12.37 0.89q5-2.35 10.26-4.25a12.62 12.62 0 0 0 8.1-9.37l7.67-38.34A12.57 12.57 0 0 1 289.16 320h29.67a12.57 12.57 0 0 1 12.33 10.11l7.67 38.34a12.62 12.62 0 0 0 8.1 9.37q5.24 1.91 10.26 4.25a12.63 12.63 0 0 0 12.37-0.89l32.53-21.69a12.57 12.57 0 0 1 15.91 1.57l21 21a12.57 12.57 0 0 1 1.57 15.86l-21.69 32.53a12.63 12.63 0 0 0-0.89 12.37q2.34 5 4.25 10.26a12.62 12.62 0 0 0 9.37 8.1l38.34 7.67A12.57 12.57 0 0 1 480 481.16zM896 768H544V256h352z" p-id="4814"></path><path d="M304 420.57a75.43 75.43 0 1 0 53.34 22.09A74.94 74.94 0 0 0 304 420.57z" p-id="4815"></path></svg>