<?xml version="1.0" standalone="no"?><!DOCTYPE svg PUBLIC "-//W3C//DTD SVG 1.1//EN" "http://www.w3.org/Graphics/SVG/1.1/DTD/svg11.dtd"><svg t="1610524279404" class="icon" viewBox="0 0 1024 1024" version="1.1" xmlns="http://www.w3.org/2000/svg" p-id="7102" xmlns:xlink="http://www.w3.org/1999/xlink" width="200" height="200"><defs><style type="text/css"></style></defs><path d="M923.147 41.58l-814.643 0c-37.325 0-67.886 30.564-67.886 67.885l0 814.648c0 37.322 30.562 67.883 67.885 67.883l814.643 0c37.327 0 67.888-30.562 67.888-67.883l0-814.648c0-37.321-30.562-67.885-67.887-67.885zM923.147 924.116l-814.643 0 0-814.649 814.643 0 0 814.649zM380.053 245.244l407.326 0 0 67.888-407.326 0 0-67.888zM244.276 245.244l67.888 0 0 67.888-67.888 0 0-67.888zM380.053 381.018l407.326 0 0 67.888-407.326 0 0-67.888zM244.276 381.018l67.888 0 0 67.888-67.888 0 0-67.888zM380.053 584.679l407.326 0 0 67.888-407.326 0 0-67.888zM244.276 584.679l67.888 0 0 67.888-67.888 0 0-67.888zM380.053 720.45l407.326 0 0 67.893-407.326 0 0-67.893zM244.276 720.45l67.888 0 0 67.893-67.888 0 0-67.893z" p-id="7103"></path></svg>