<?xml version="1.0" standalone="no"?><!DOCTYPE svg PUBLIC "-//W3C//DTD SVG 1.1//EN" "http://www.w3.org/Graphics/SVG/1.1/DTD/svg11.dtd"><svg t="1610524255911" class="icon" viewBox="0 0 1024 1024" version="1.1" xmlns="http://www.w3.org/2000/svg" p-id="6330" xmlns:xlink="http://www.w3.org/1999/xlink" width="200" height="200"><defs><style type="text/css"></style></defs><path d="M871.542726 524.352329l-139.095965-23.668049 144.904251-135.775336c3.120061-2.922563 4.314259-7.361665 3.083222-11.455913s-4.675486-7.137561-8.890484-7.854898L718.51854 319.553966l151.135162-141.614321L487.065098 112.825648 156.23532 366.67517l160.389944 41.498136L149.382239 536.499997c-3.413749 2.619664-5.03569 6.956436-4.178159 11.17348s4.045129 7.575536 8.211009 8.654101l151.872966 39.293935L149.382239 715.254194c-3.413749 2.619664-5.03569 6.956436-4.178159 11.17348s4.045129 7.575536 8.211009 8.654101l401.209708 103.805204c0.931209 0.240477 1.87879 0.35918 2.818185 0.35918 2.825348 0 5.586229-1.064238 7.697309-3.042289l312.209698-292.540729c3.120061-2.923586 4.314259-7.361665 3.083222-11.455913C879.20115 528.112979 875.756701 525.069667 871.542726 524.352329zM181.394327 540.311813l162.885787-124.983549 213.163891 55.152111 140.448776-131.60127 147.515728 25.106818L554.267663 636.786051 181.394327 540.311813zM554.267663 815.541271l-372.873336-96.474238 146.627499-112.51354c1.490957-1.144056 2.608407-2.589988 3.348258-4.183276l223.254713 57.763588c0.931209 0.240477 1.87879 0.35918 2.818185 0.35918 2.825348 0 5.586229-1.064238 7.697309-3.042289l146.679687-137.439232L845.408509 542.742165 554.267663 815.541271z" p-id="6331"></path></svg>