<?xml version="1.0" standalone="no"?><!DOCTYPE svg PUBLIC "-//W3C//DTD SVG 1.1//EN" "http://www.w3.org/Graphics/SVG/1.1/DTD/svg11.dtd"><svg class="icon" width="200px" height="200.00px" viewBox="0 0 1024 1024" version="1.1" xmlns="http://www.w3.org/2000/svg"><path d="M564.19328 972.22144H186.25024c-17.408 0-38.36416 3.09248-54.08256-5.59104-18.56-10.25536-18.24768-31.72352-18.24768-49.85856v-148.736-481.19808-156.6464c0-13.68576-1.16736-27.1872 5.02784-39.93088 10.00448-20.57216 29.45024-20.28544 48.37376-20.28544h626.23232c34.93888 0 105.00608-12.81024 105.00608 41.02656v540.16512c0 33.01376 51.2 33.01376 51.2 0V278.8864 115.93216c0-38.56896-18.69824-74.9568-55.4496-90.32192-16.78848-7.01952-33.3056-6.8352-50.88256-6.8352H215.79776c-45.59872 0-94.9504-7.35232-129.48992 29.46048-30.33088 32.32768-23.58784 82.2016-23.58784 122.98752V930.88256c0 50.60096 38.31296 89.68704 88.04864 92.53888 14.88384 0.85504 30.06976 0 44.96896 0h368.4608c33.01376 0 33.01376-51.2-0.00512-51.2z"  /><path d="M251.29472 286.22848h506.87488c33.01376 0 33.01376-51.2 0-51.2H251.29472c-33.01888 0-33.01888 51.2 0 51.2zM251.29472 510.1312h506.87488c33.01376 0 33.01376-51.2 0-51.2H251.29472c-33.01888 0-33.01888 51.2 0 51.2zM251.29472 729.30304h274.6368c33.01376 0 33.01376-51.2 0-51.2h-274.6368c-33.01888 0-33.01888 51.2 0 51.2zM961.7408 772.352h-302.08l22.10304 38.51776 46.08-76.8c17.02912-28.38528-27.24864-54.10816-44.2112-25.84064l-46.08 76.8c-10.03008 16.7168 2.87232 38.51776 22.10304 38.51776h302.08c33.01888 0.00512 33.01888-51.19488 0.00512-51.19488zM659.6608 938.77248h302.08l-22.10304-38.51776-46.08 76.8c-17.02912 28.38528 27.24864 54.10816 44.2112 25.84064l46.08-76.8c10.03008-16.7168-2.87232-38.51776-22.10304-38.51776h-302.08c-33.01888-0.00512-33.01888 51.19488-0.00512 51.19488z"  /></svg>