<?xml version="1.0" standalone="no"?><!DOCTYPE svg PUBLIC "-//W3C//DTD SVG 1.1//EN" "http://www.w3.org/Graphics/SVG/1.1/DTD/svg11.dtd"><svg class="icon" width="200px" height="200.00px" viewBox="0 0 1024 1024" version="1.1" xmlns="http://www.w3.org/2000/svg"><path d="M199.365022 873.823373H398.222556V712.155004c-23.053482-5.509876-39.763107-19.824555-39.763107-37.098166 0-17.249613 16.709625-31.565291 39.763107-37.075168V476.313302H199.365022v397.511071z m477.329279-309.225054a256.231245 256.231245 0 0 1 39.762107-15.669648V416.658641h113.913441l-412.232741-292.743424L5.882368 416.659641h113.890442v457.164732h39.807106V436.550195h517.114385v128.048124zM962.662878 765.442807a177.971003 177.971003 0 0 0-27.749377-60.128649l31.091302-51.910834-27.502383-27.59238-53.715793 32.289274a173.974092 173.974092 0 0 0-56.53873-22.421496l-15.534651-62.003607h-38.905126l-15.534652 62.003607a170.339174 170.339174 0 0 0-56.08674 22.669491l-54.190783-32.537269-27.501382 27.59238 31.249298 52.135829a175.939048 175.939048 0 0 0-27.975371 59.948653l-55.364757 13.84069v38.995124l51.412845 12.869711a175.578056 175.578056 0 0 0 26.124414 70.606414l-25.446429 42.472046 27.501382 27.569381 40.52909-24.340454c21.586515 16.189636 46.672952 27.930373 74.332331 32.785264l10.950754 43.714018h38.905126l10.949754-43.759017a175.306062 175.306062 0 0 0 74.196333-32.785264l40.621088 24.408452 27.501382-27.569381-25.627424-42.811038c13.321701-20.93153 22.895486-44.527 26.349408-70.267422l51.368846-12.869711v-38.995124l-55.409755-13.909688zM793.293682 905.096671a97.429812 97.429812 0 0 1-97.339814-97.475811c0-53.828791 43.578021-97.452811 97.339814-97.452811s97.361813 43.64602 97.361813 97.452811a97.452811 97.452811 0 0 1-97.361813 97.475811zM636.887195 588.893773V476.313302H438.007662v161.668368c23.053482 5.509876 39.739107 19.824555 39.739107 37.075168s-16.685625 31.58929-39.739107 37.099166v161.667369h104.835645c-7.13484-23.933462-12.192726-48.770905-12.192726-75.031315 0-86.163065 42.133054-162.006361 106.236614-209.898285z"  /></svg>