<?xml version="1.0" standalone="no"?><!DOCTYPE svg PUBLIC "-//W3C//DTD SVG 1.1//EN" "http://www.w3.org/Graphics/SVG/1.1/DTD/svg11.dtd"><svg class="icon" width="200px" height="200.00px" viewBox="0 0 1024 1024" version="1.1" xmlns="http://www.w3.org/2000/svg"><path d="M511.967002 1024a49.5616 49.5616 0 0 0-4.7104-1.911467C404.242202 982.562133 68.233669 826.5728 68.233669 478.6176V178.9952C289.281136 178.926933 509.782469 1.774933 511.967002 0c2.184533 1.774933 218.453333 178.9952 443.733334 178.9952v299.6224a489.949867 489.949867 0 0 1-69.0176 253.405867 613.649067 613.649067 0 0 1-151.9616 168.7552A810.871467 810.871467 0 0 1 511.967002 1024zM508.690202 257.774933a109.704533 109.704533 0 1 0 0 219.409067 183.9104 183.9104 0 0 0-184.9344 182.818133c0 52.0192 95.573333 75.776 184.9344 75.776s184.9344-23.688533 184.9344-75.776a184.32 184.32 0 0 0-184.32-182.818133 109.704533 109.704533 0 1 0 0-219.409067z" /></svg>