<?xml version="1.0" standalone="no"?><!DOCTYPE svg PUBLIC "-//W3C//DTD SVG 1.1//EN" "http://www.w3.org/Graphics/SVG/1.1/DTD/svg11.dtd"><svg class="icon" width="200px" height="200.00px" viewBox="0 0 1024 1024" version="1.1" xmlns="http://www.w3.org/2000/svg"><path d="M195.816804 194.756659 195.816804 395.431098 259.300674 337.177346 259.300674 194.756659ZM215.199247 413.538501 215.199247 212.864062 278.683117 212.864062 278.683117 355.284749 302.437124 333.487304 319.260278 318.049706 319.260278 175.883823 174.621063 175.883823 174.621063 475.66035 201.74277 475.66035 201.74277 425.886737ZM512.097214 190.806697 299.878858 371.017058 283.054681 385.303436 219.937155 438.900122 219.937155 858.552877 805.056476 858.552877 805.056476 439.578574 741.140771 385.303436ZM881.08608 448.845635 855.461469 425.421132 829.835835 401.997654 793.034674 368.357486 731.741703 312.328401 512.097214 111.550609 308.587194 297.580512 292.452725 312.328401 269.673929 333.151659 231.92621 367.656521 208.795397 388.801097 195.890482 400.596747 169.499415 424.721191 143.874805 448.14467 72.808236 513.107217 143.874805 513.107217 148.124596 513.107217 169.499415 493.567185 195.890482 469.442742 195.890482 448.14467 219.190141 448.14467 231.92621 436.503539 292.452725 381.175419 308.587194 366.42753 512.097214 180.396603 731.741703 381.175419 793.034674 437.20348 829.835835 470.843648 855.461469 494.26815 876.070856 513.107217 881.08608 513.107217 951.386192 513.107217ZM808.52753 438.314791 808.52753 862.774015 218.038922 862.774015 218.038922 438.314791 159.366637 438.314791 159.366637 920.017764 867.199815 920.017764 867.199815 438.314791ZM402.246317 723.753775l0 180.254364L621.949134 904.008138 621.949134 723.753775 402.246317 723.753775zM585.17458 887.254569 439.019849 887.254569 439.019849 757.159606l146.154731 0L585.17458 887.254569z" /></svg>