<?xml version="1.0" standalone="no"?><!DOCTYPE svg PUBLIC "-//W3C//DTD SVG 1.1//EN" "http://www.w3.org/Graphics/SVG/1.1/DTD/svg11.dtd"><svg t="1601886830099" class="icon" viewBox="0 0 1024 1024" version="1.1" xmlns="http://www.w3.org/2000/svg" p-id="5360" xmlns:xlink="http://www.w3.org/1999/xlink" width="200" height="200"><defs><style type="text/css"></style></defs><path d="M243.86730561 30.58453234h402.19904079a67.03317398 67.03317398 0 0 1 67.03317398 67.03317397v167.58293263a67.03317398 67.03317398 0 0 1-67.03317398 67.03317401H243.86730561a67.03317398 67.03317398 0 0 1-67.03317243-67.03317401v-167.58293263a67.03317398 67.03317398 0 0 1 67.03317243-67.03317397z m167.58293419 100.54976019v100.54976019h67.033174v-100.54976019h-67.033174z m134.0663464 0v100.54976019h67.033174v-100.54976019h-67.033174zM154.31098691 466.30015935h715.37802618a67.03317398 67.03317398 0 0 1 64.55294605 48.90070109L1014.74880099 801.46602772H9.25119901l80.50684185-286.26516728A67.03317398 67.03317398 0 0 1 154.31098691 466.30015935zM9.25119901 868.49920015h1005.49760198v67.03317398a67.03317398 67.03317398 0 0 1-67.03317397 67.03317397H76.28437298a67.03317398 67.03317398 0 0 1-67.03317397-67.03317397v-67.03317398z m335.1658668-536.2653872h134.06634799v134.0663464h-134.06634799v-134.0663464z" p-id="5361"></path></svg>