<?xml version="1.0" standalone="no"?><!DOCTYPE svg PUBLIC "-//W3C//DTD SVG 1.1//EN" "http://www.w3.org/Graphics/SVG/1.1/DTD/svg11.dtd"><svg class="icon" width="200px" height="200.00px" viewBox="0 0 1024 1024" version="1.1" xmlns="http://www.w3.org/2000/svg"><path d="M66.02666667 328.21333333c20.69333333 12.58666667 45.54666667 12.05333333 65.06666666 0.96L363.30666667 463.25333333c-5.22666667 15.78666667-8.10666667 32.74666667-8.10666667 50.34666667 0 17.81333334 2.88 34.98666667 8.32 50.98666667l-231.78666667 133.76c-20.05333333-11.73333333-45.97333332-12.15999999-67.2 1.6-27.41333333 17.81333333-37.01333333 53.97333333-21.97333333 82.98666666 16.85333333 32.64 57.38666667 44.26666667 88.85333333 26.13333334 20.37333333-11.73333333 31.89333333-33.06666667 32.00000001-55.04L395.62666667 619.94666667c22.50666667 25.28 52.79999999 43.30666667 87.14666666 50.34666666L482.77333333 917.12c-19.41333333 11.41333333-32.21333333 32.64-31.68 56.85333333 0.85333333 34.13333333 28.90666667 61.86666667 63.04 62.40000001 35.73333333 0.53333333 64.95999999-28.37333333 64.96-64 0-23.78666666-13.01333333-44.58666666-32.32-55.57333334l0-246.29333333c34.66666667-6.93333333 65.28-25.06666667 87.89333334-50.56L866.88 754.02666667c0.10666667 22.50666667 12.16 44.26666667 33.38666668 55.78666666 29.97333333 16.32 68.05333333 5.97333332 85.54666665-23.36 18.34666667-30.72 7.89333333-70.4-22.93333333-88.21333333-20.58666667-11.94666667-45.12-10.98666667-64.32 0.21333333l-231.68-133.76c5.33333332-16 8.32-33.17333333 8.32-50.98666665 0-17.6-2.88-34.56-8.10666667-50.34666668L899.2 329.28c19.52 11.09333332 44.37333333 11.62666667 65.06666667-0.96 29.12-17.81333333 39.14666667-56 22.50666666-85.76-17.49333333-31.25333333-56.96-42.13333333-87.89333332-24.21333333-20.58666667 11.94666667-32.10666667 33.6-32 55.78666665l-231.78666668 133.76000002c-22.71999999-25.70666667-53.44-44.05333333-88.32-50.98666667l0-246.29333334c20.16-11.52 33.49333332-33.70666667 32.21333335-58.98666666-1.70666667-32.64-28.26666667-58.98666667-60.90666668-60.58666667-36.69333333-1.70666667-67.09333333 27.52-67.09333333 63.89333333 0 23.57333333 12.69333333 44.16000001 31.68 55.25333334L482.66666667 356.90666667c-34.56 7.14666666-65.06666667 25.38666667-87.68 50.88L163.2 273.92c0.10666667-22.18666667-11.41333333-43.84-32-55.78666667-30.93333333-17.81333333-70.40000001-7.04-87.89333333 24.21333334-16.42666667 29.97333333-6.4 68.16000001 22.72 85.86666666z"  /><path d="M909.76 655.25333333c15.89333333-44.26666667 24.53333333-91.94666667 24.53333333-141.65333333s-8.64-97.38666667-24.53333334-141.65333333l-92.79999998 53.54666666c8.10666667 27.94666667 12.48 57.49333334 12.47999999 88.10666667s-4.37333333 60.16-12.48 88.10666667l92.8 53.54666666zM288 730.98666667l-92.8 53.54666666c61.65333334 72.64 147.52 124.05333334 245.22666667 141.65333334l1e-8-107.09333334c-59.09333333-14.4-111.68-45.54666667-152.42666668-88.10666666zM120.53333333 372.05333333c-15.89333333 44.26666667-24.53333333 91.94666667-24.53333333 141.65333334s8.64 97.38666667 24.53333333 141.65333333l92.8-53.54666667c-8.10666667-27.94666667-12.48-57.49333334-12.48-88.10666666s4.37333333-60.16 12.48-88.10666667l-92.8-53.54666667zM440.42666667 208.21333332l0-107.09333331c-97.70666667 17.6-183.57333333 69.01333333-245.22666667 141.65333332l92.8 53.54666666c40.74666667-42.56 93.33333332-73.70666667 152.42666667-88.10666667zM589.76 819.09333333L589.76 926.18666666c97.70666667-17.6 183.57333333-69.01333333 245.22666667-141.65333333l-92.8-53.54666666c-40.64 42.56-93.22666668 73.70666667-152.42666667 88.10666666zM742.29333333 296.31999999l92.8-53.54666665c-61.65333334-72.64-147.52-124.05333334-245.22666666-141.65333333L589.86666667 208.21333332c59.09333333 14.4 111.68 45.54666667 152.42666666 88.10666667z"  /></svg>